<?xml version="1.0" encoding="UTF-8"?>
<svg width="75px" height="25px" viewBox="0 0 75 25" version="1.1" xmlns="http://www.w3.org/2000/svg" xmlns:xlink="http://www.w3.org/1999/xlink">
    <!-- Generator: Sketch 52.4 (67378) - http://www.bohemiancoding.com/sketch -->
    <title>AppStore-NotAct-01</title>
    <desc>Created with Sketch.</desc>
    <g id="Page-1" stroke="none" stroke-width="1" fill="none" fill-rule="evenodd">
        <g id="AthenaKYC-Proto1-Login" transform="translate(-474.000000, -591.000000)">
            <g id="Group-6" transform="translate(474.000000, 591.000000)">
                <g id="App-Store">
                    <g id="AppStore-NotAct-01">
                        <rect id="Rectangle" fill="#A7A9AC" x="0" y="0" width="75" height="24.8189655" rx="3.89"></rect>
                        <path d="M12.9545455,4.24137931 L6.81818182,4.24137931 C6.0938983,4.25547053 5.51407058,4.85346278 5.51420455,5.5862069 L5.51420455,19.2758621 C5.51407058,20.0086062 6.0938983,20.6065984 6.81818182,20.6206897 L12.9545455,20.6206897 C13.6888331,20.6206897 14.2840909,20.0185898 14.2840909,19.2758621 L14.2840909,5.5862069 C14.2840909,4.84347913 13.6888331,4.24137931 12.9545455,4.24137931 Z M9.89488636,19.6293103 C9.42418913,19.6293103 9.04261364,19.2433489 9.04261364,18.7672414 C9.04261364,18.2911338 9.42418913,17.9051724 9.89488636,17.9051724 C10.3655836,17.9051724 10.7471591,18.2911338 10.7471591,18.7672414 C10.7471591,19.2433489 10.3655836,19.6293103 9.89488636,19.6293103 Z M13.2357955,17.4051724 L6.5625,17.4051724 L6.5625,7.31034483 L13.2443182,7.31034483 L13.2443182,17.4137931 L13.2357955,17.4051724 Z" id="Shape" fill="#FFFFFF" fill-rule="nonzero"></path>
                        <path d="M19.2869318,6.68103448 L18.9119318,7.81896552 L18.4346591,7.81896552 L19.6534091,4.19827586 L20.2073864,4.19827586 L21.4261364,7.81896552 L20.9318182,7.81896552 L20.5482955,6.68103448 L19.2869318,6.68103448 Z M20.4545455,6.31896552 L20.0965909,5.27586207 C20.0198864,5.04310345 19.96875,4.82758621 19.9176136,4.61206897 C19.8664773,4.81896552 19.8153409,5.04310345 19.7386364,5.26724138 L19.3806818,6.31896552 L20.4545455,6.31896552 Z" id="Shape" fill="#FFFFFF" fill-rule="nonzero"></path>
                        <path d="M21.9034091,5.22413793 L22.40625,6.68103448 C22.4914773,6.92241379 22.5596591,7.13793103 22.6107955,7.35344828 C22.6704545,7.13793103 22.7471591,6.92241379 22.8238636,6.68103448 L23.3267045,5.22413793 L23.8636364,5.22413793 L22.8579545,7.81034483 L22.3806818,7.81034483 L21.4090909,5.22413793 L21.9034091,5.22413793 Z" id="Path" fill="#FFFFFF"></path>
                        <path d="M25.9857955,7.19827586 C25.971049,7.40490358 25.971049,7.6123378 25.9857955,7.81896552 L25.5681818,7.81896552 L25.5681818,7.49137931 C25.3849376,7.74221199 25.092338,7.88697641 24.7840909,7.87931034 C24.5810016,7.89367785 24.3811541,7.82195845 24.2324295,7.68133528 C24.0837049,7.54071211 23.9995039,7.34385588 24,7.13793103 C24,6.50862069 24.5539773,6.1637931 25.5426136,6.17241379 L25.5426136,6.11206897 C25.564476,5.94933827 25.5111641,5.78547523 25.3980338,5.66767906 C25.2849036,5.54988289 25.1245157,5.49123217 24.9630682,5.50862069 C24.72527,5.5049905 24.4914871,5.57084291 24.2897727,5.69827586 L24.1875,5.37931034 C24.4472777,5.23037854 24.7411766,5.1530865 25.0397727,5.15517241 C25.318834,5.13064008 25.5935601,5.23719293 25.7848642,5.44415701 C25.9761683,5.65112109 26.0628244,5.93553289 26.0198864,6.21551724 L26.0198864,7.19827586 L25.9857955,7.19827586 Z M25.5681818,6.5 C25.0568182,6.5 24.4772727,6.57758621 24.4772727,7.0862069 C24.4670695,7.20643824 24.5092627,7.32518448 24.5927991,7.41133789 C24.6763355,7.49749131 24.792891,7.54246699 24.9119318,7.53448276 C25.1922484,7.54407598 25.4468214,7.37009009 25.5426136,7.10344828 C25.5498561,7.05487234 25.5498561,7.00547248 25.5426136,6.95689655 L25.5426136,6.5 L25.5681818,6.5 Z" id="Shape" fill="#FFFFFF" fill-rule="nonzero"></path>
                        <path d="M26.9767228,4.75 C26.7824717,4.75 26.625,4.6149135 26.625,4.44827586 C26.625,4.28163822 26.7824717,4.14655172 26.9767228,4.14655172 C27.0708392,4.14414002 27.161944,4.17515362 27.2285241,4.23226906 C27.2951041,4.2893845 27.331257,4.36753845 27.3284456,4.44827586 C27.331257,4.52901328 27.2951041,4.60716723 27.2285241,4.66428266 C27.161944,4.7213981 27.0708392,4.7524117 26.9767228,4.75 Z M26.715443,7.81896552 L26.715443,5.23275862 L27.2681503,5.23275862 L27.2681503,7.81896552 L26.715443,7.81896552 Z" id="Shape" fill="#FFFFFF" fill-rule="nonzero"></path>
                        <polygon id="Path" fill="#FFFFFF" points="27.9204545 4.00862069 28.3892045 4.00862069 28.3892045 7.81896552 27.9204545 7.81896552"></polygon>
                        <path d="M30.9460227,7.19827586 C30.9314804,7.40491097 30.9314804,7.61233041 30.9460227,7.81896552 L30.5625,7.81896552 L30.5625,7.49137931 C30.3792557,7.74221199 30.0866561,7.88697641 29.7784091,7.87931034 C29.5753198,7.89367785 29.3754723,7.82195845 29.2267477,7.68133528 C29.0780231,7.54071211 28.9938221,7.34385588 28.9943182,7.13793103 C28.9943182,6.50862069 29.5482955,6.1637931 30.5369318,6.17241379 L30.5369318,6.11206897 C30.5593327,5.94767029 30.5049664,5.78207308 30.3897911,5.66388558 C30.2746159,5.54569808 30.1116996,5.48832998 29.9488636,5.50862069 C29.7110654,5.5049905 29.4772826,5.57084291 29.2755682,5.69827586 L29.1647727,5.37931034 C29.4245504,5.23037854 29.7184493,5.1530865 30.0170455,5.15517241 C30.2961067,5.13064008 30.5708328,5.23719293 30.7621369,5.44415701 C30.953441,5.65112109 31.0400972,5.93553289 30.9971591,6.21551724 L30.9971591,7.19827586 L30.9460227,7.19827586 Z M30.4857955,6.49137931 C29.9744318,6.49137931 29.3948864,6.56896552 29.3948864,7.07758621 C29.3846831,7.19781755 29.4268763,7.31656379 29.5104127,7.4027172 C29.5939492,7.48887062 29.7105047,7.5338463 29.8295455,7.52586207 C30.109862,7.53545529 30.364435,7.3614694 30.4602273,7.09482759 C30.4676005,7.04626167 30.4676005,6.99684178 30.4602273,6.94827586 L30.4602273,6.5 L30.4857955,6.49137931 Z" id="Shape" fill="#FFFFFF" fill-rule="nonzero"></path>
                        <path d="M31.6619318,4.00862069 L32.1306818,4.00862069 L32.1306818,5.63793103 C32.3078881,5.33435101 32.6345901,5.15259958 32.9829545,5.1637931 C33.3091778,5.17305422 33.6161656,5.32200871 33.8274796,5.57356762 C34.0387936,5.82512653 34.1345511,6.15562068 34.0909091,6.48275862 C34.1340841,6.8262277 34.0334839,7.17232861 33.8133953,7.43750637 C33.5933067,7.70268414 33.2737305,7.86284032 32.9318182,7.87931034 C32.5779151,7.89505117 32.2464859,7.70396508 32.0795455,7.38793103 L32.0795455,7.81896552 L31.6448864,7.81896552 C31.6448864,7.63793103 31.6448864,7.37931034 31.6448864,7.14655172 L31.6448864,4.00862069 L31.6619318,4.00862069 Z M32.1306818,6.78448276 C32.1249857,6.84180962 32.1249857,6.89956969 32.1306818,6.95689655 C32.2122087,7.28034525 32.4995462,7.50718639 32.8295455,7.50862069 C33.0677489,7.49010148 33.2873313,7.37130428 33.4347895,7.18117511 C33.5822476,6.99104593 33.6440412,6.74704331 33.6051136,6.50862069 C33.6362974,6.27561206 33.5720318,6.03983032 33.4272069,5.85590446 C33.2823819,5.6719786 33.0695664,5.55587092 32.8380682,5.53448276 C32.4297309,5.55719245 32.1089909,5.89670873 32.1051136,6.31034483 L32.1051136,6.78448276 L32.1306818,6.78448276 Z" id="Shape" fill="#FFFFFF" fill-rule="nonzero"></path>
                        <polygon id="Path" fill="#FFFFFF" points="34.6534091 4.00862069 35.1221591 4.00862069 35.1221591 7.81896552 34.6534091 7.81896552"></polygon>
                        <path d="M36.1363636,6.60344828 C36.1363636,7.07955582 36.5179391,7.46551724 36.9886364,7.46551724 C37.2307067,7.47197649 37.4714999,7.42795945 37.6960227,7.3362069 L37.78125,7.67241379 C37.5116284,7.78676098 37.2212719,7.84256282 36.9289773,7.8362069 C36.5831048,7.85470583 36.2461601,7.72135668 36.0045366,7.47035049 C35.7629132,7.2193443 35.6401098,6.87509249 35.6676136,6.52586207 C35.6442122,6.17954907 35.7622799,5.83868652 35.9942456,5.58287248 C36.2262113,5.32705845 36.551766,5.1786899 36.8948864,5.17241379 C37.197756,5.17803686 37.4844371,5.3117784 37.6852842,5.54114772 C37.8861313,5.77051704 37.9827632,6.07452259 37.9517045,6.37931034 C37.9585292,6.45386353 37.9585292,6.52889509 37.9517045,6.60344828 L36.1363636,6.60344828 Z M37.5,6.26724138 C37.5267893,6.0775716 37.4723146,5.88534968 37.3502533,5.73883873 C37.228192,5.59232779 37.0501374,5.50544321 36.8607955,5.5 C36.460522,5.5270357 36.1484523,5.86148142 36.1448864,6.26724138 L37.5,6.26724138 Z" id="Shape" fill="#FFFFFF" fill-rule="nonzero"></path>
                        <path d="M40.6448864,7.87931034 C40.3024796,7.88032244 39.9752233,7.73659959 39.7421692,7.48285928 C39.509115,7.22911898 39.391456,6.88843534 39.4176136,6.54310345 C39.3886828,6.18645611 39.5101748,5.83406107 39.7520851,5.57294799 C39.9939954,5.3118349 40.3337714,5.16634661 40.6875,5.17241379 C41.0314227,5.16380824 41.3627129,5.30366352 41.5985483,5.55701592 C41.8343836,5.81036831 41.9524735,6.15327153 41.9232955,6.5 C41.9520589,6.85742112 41.8307873,7.21058521 41.5891753,7.47301659 C41.3475632,7.73544798 41.0079194,7.88291551 40.6534091,7.87931034 L40.6448864,7.87931034 Z M40.6448864,7.52586207 C40.8866326,7.50792152 41.1093898,7.38670877 41.2574171,7.19255511 C41.4054443,6.99840145 41.4647356,6.74967706 41.4204545,6.50862069 C41.5044474,6.18044939 41.3776142,5.83407571 41.1025431,5.64042438 C40.8274721,5.44677305 40.4623006,5.44677305 40.1872296,5.64042438 C39.9121586,5.83407571 39.7853253,6.18044939 39.8693182,6.50862069 C39.8304182,6.74566732 39.8910958,6.98837924 40.036719,7.17822883 C40.1823423,7.36807842 40.3996946,7.48783509 40.6363636,7.50862069 L40.6448864,7.52586207 Z" id="Shape" fill="#FFFFFF" fill-rule="nonzero"></path>
                        <path d="M42.4857955,5.93103448 C42.4857955,5.65517241 42.4857955,5.43965517 42.4857955,5.22413793 L42.9034091,5.22413793 L42.9034091,5.64655172 C43.0784171,5.33965477 43.4055417,5.15435937 43.7556818,5.1637931 C44.0298964,5.16463583 44.2897339,5.28797709 44.4656057,5.50078406 C44.6414776,5.71359104 44.715414,5.99412026 44.6676136,6.26724138 L44.6676136,7.81896552 L44.2073864,7.81896552 L44.2073864,6.32758621 C44.2481045,6.14201946 44.2048905,5.9477525 44.0895173,5.79771054 C43.9741441,5.64766858 43.7986315,5.55748321 43.6107955,5.55172414 C43.3226062,5.56128867 43.0724296,5.75541086 42.9886364,6.03448276 C42.9768518,6.10871995 42.9768518,6.18438349 42.9886364,6.25862069 L42.9886364,7.81896552 L42.4857955,7.81896552 L42.4857955,5.93103448 Z" id="Path" fill="#FFFFFF"></path>
                        <path d="M47.0625,4.60344828 L47.0625,5.22413793 L47.7272727,5.22413793 L47.7272727,5.5862069 L47.0625,5.5862069 L47.0625,6.98275862 C47.0625,7.30172414 47.15625,7.49137931 47.4119318,7.49137931 C47.5022515,7.50618734 47.5943394,7.50618734 47.6846591,7.49137931 L47.6846591,7.85344828 C47.5524697,7.89603099 47.4142751,7.91641602 47.2755682,7.9137931 C47.0877777,7.92259092 46.9050843,7.85055285 46.7727273,7.71551724 C46.6347542,7.51732571 46.5712841,7.27581285 46.59375,7.03448276 L46.59375,5.5862069 L46.2102273,5.5862069 L46.2102273,5.22413793 L46.6107955,5.22413793 L46.6107955,4.75 L47.0625,4.60344828 Z" id="Path" fill="#FFFFFF"></path>
                        <path d="M48.2301136,4.00862069 L48.6988636,4.00862069 L48.6988636,5.62931034 C48.7763101,5.48794068 48.8914868,5.37144012 49.03125,5.29310345 C49.1788945,5.20785801 49.3471574,5.16605524 49.5170455,5.17241379 C49.7900507,5.17785027 50.0468658,5.30450179 50.2192395,5.51870949 C50.3916133,5.73291718 50.4620871,6.01298521 50.4119318,6.28448276 L50.4119318,7.81896552 L49.9517045,7.81896552 L49.9517045,6.32758621 C49.9924227,6.14201946 49.9492086,5.9477525 49.8338355,5.79771054 C49.7184623,5.64766858 49.5429497,5.55748321 49.3551136,5.55172414 C49.0692155,5.56006141 48.819727,5.75019283 48.7329545,6.02586207 C48.7182617,6.09983565 48.7182617,6.17602642 48.7329545,6.25 L48.7329545,7.81896552 L48.2301136,7.81896552 L48.2301136,4.00862069 Z" id="Path" fill="#FFFFFF"></path>
                        <path d="M51.4090909,6.60344828 C51.4090909,7.07955582 51.7906664,7.46551724 52.2613636,7.46551724 C52.5034153,7.47173091 52.7441596,7.42772282 52.96875,7.3362069 L53.0539773,7.67241379 C52.7842826,7.7865152 52.493978,7.84230706 52.2017045,7.8362069 C51.8558321,7.85470583 51.5188874,7.72135668 51.2772639,7.47035049 C51.0356404,7.2193443 50.9128371,6.87509249 50.9403409,6.52586207 C50.9169395,6.17954907 51.0350072,5.83868652 51.2669729,5.58287248 C51.4989386,5.32705845 51.8244933,5.1786899 52.1676136,5.17241379 C52.4704833,5.17803686 52.7571643,5.3117784 52.9580114,5.54114772 C53.1588585,5.77051704 53.2554905,6.07452259 53.2244318,6.37931034 C53.2312565,6.45386353 53.2312565,6.52889509 53.2244318,6.60344828 L51.4090909,6.60344828 Z M52.7727273,6.26724138 C52.7995166,6.0775716 52.7450418,5.88534968 52.6229806,5.73883873 C52.5009193,5.59232779 52.3228647,5.50544321 52.1335227,5.5 C51.7332492,5.5270357 51.4211796,5.86148142 51.4176136,6.26724138 L52.7727273,6.26724138 Z" id="Shape" fill="#FFFFFF" fill-rule="nonzero"></path>
                        <path d="M55.1528592,4.75 C54.958608,4.75 54.8011364,4.6149135 54.8011364,4.44827586 C54.8011364,4.28163822 54.958608,4.14655172 55.1528592,4.14655172 C55.2469756,4.14414002 55.3380804,4.17515362 55.4046604,4.23226906 C55.4712405,4.2893845 55.5073933,4.36753845 55.504582,4.44827586 C55.5075741,4.53057927 55.470071,4.61016638 55.4012477,4.6675662 C55.3324244,4.72496602 55.2386295,4.75488375 55.1428099,4.75 L55.1528592,4.75 Z M54.8915794,7.81896552 L54.8915794,5.23275862 L55.4442866,5.23275862 L55.4442866,7.81896552 L54.8915794,7.81896552 Z" id="Shape" fill="#FFFFFF" fill-rule="nonzero"></path>
                        <path d="M56.1051136,4.25 C56.3863531,4.19851516 56.671578,4.17254986 56.9573864,4.17241379 C57.3161514,4.14867354 57.6710313,4.25912243 57.9545455,4.48275862 C58.1652825,4.67610318 58.2807167,4.95380494 58.2698864,5.24137931 C58.2857318,5.5281358 58.1839862,5.80881327 57.9886364,6.01724138 C57.6932538,6.29366452 57.2994941,6.4367984 56.8977273,6.4137931 C56.7731491,6.42848255 56.6473055,6.42848255 56.5227273,6.4137931 L56.5227273,7.81896552 L56.1051136,7.81896552 L56.1051136,4.25 Z M56.5653409,5.97413793 C56.6927003,5.99000989 56.8215042,5.99000989 56.9488636,5.97413793 C57.1718695,6.01226704 57.4001444,5.9489033 57.5726742,5.80098279 C57.7452041,5.65306228 57.8444005,5.43566459 57.84375,5.20689655 C57.8483329,4.98877477 57.7542802,4.78045571 57.5883094,4.64111654 C57.4223386,4.50177737 57.2025862,4.44664442 56.9914773,4.49137931 C56.8469179,4.47745551 56.7013776,4.47745551 56.5568182,4.49137931 L56.5568182,6.03448276 L56.5653409,5.97413793 Z" id="Shape" fill="#FFFFFF" fill-rule="nonzero"></path>
                        <path d="M58.8579545,4.00862069 L59.3267045,4.00862069 L59.3267045,5.62931034 C59.4054096,5.49111794 59.520471,5.37771816 59.6590909,5.30172414 C59.8083295,5.21189066 59.9798249,5.16702861 60.1534091,5.17241379 C60.4264143,5.17785027 60.6832294,5.30450179 60.8556032,5.51870949 C61.027977,5.73291718 61.0984508,6.01298521 61.0482955,6.28448276 L61.0482955,7.81896552 L60.5795455,7.81896552 L60.5795455,6.32758621 C60.6202636,6.14201946 60.5770495,5.9477525 60.4616764,5.79771054 C60.3463032,5.64766858 60.1707906,5.55748321 59.9829545,5.55172414 C59.6970564,5.56006141 59.4475679,5.75019283 59.3607955,6.02586207 C59.3461026,6.09983565 59.3461026,6.17602642 59.3607955,6.25 L59.3607955,7.81896552 L58.8579545,7.81896552 L58.8579545,4.00862069 Z" id="Path" fill="#FFFFFF"></path>
                        <path d="M62.8210227,7.87931034 C62.4786159,7.88032244 62.1513597,7.73659959 61.9183055,7.48285928 C61.6852514,7.22911898 61.5675924,6.88843534 61.59375,6.54310345 C61.5648192,6.18645611 61.6863111,5.83406107 61.9282214,5.57294799 C62.1701317,5.3118349 62.5099078,5.16634661 62.8636364,5.17241379 C63.2075591,5.16380824 63.5388493,5.30366352 63.7746846,5.55701592 C64.01052,5.81036831 64.1286098,6.15327153 64.0994318,6.5 C64.1307349,6.85884416 64.0106041,7.21435059 63.7687012,7.47873996 C63.5267984,7.74312933 63.1856701,7.89175927 62.8295455,7.88793103 L62.8210227,7.87931034 Z M62.8210227,7.52586207 C63.062769,7.50792152 63.2855262,7.38670877 63.4335534,7.19255511 C63.5815806,6.99840145 63.640872,6.74967706 63.5965909,6.50862069 C63.6805838,6.18044939 63.5537505,5.83407571 63.2786795,5.64042438 C63.0036085,5.44677305 62.638437,5.44677305 62.363366,5.64042438 C62.0882949,5.83407571 61.9614617,6.18044939 62.0454545,6.50862069 C62.0065546,6.74566732 62.0672321,6.98837924 62.2128554,7.17822883 C62.3584787,7.36807842 62.575831,7.48783509 62.8125,7.50862069 L62.8210227,7.52586207 Z" id="Shape" fill="#FFFFFF" fill-rule="nonzero"></path>
                        <path d="M64.6619318,5.93103448 C64.6619318,5.65517241 64.6619318,5.43965517 64.6619318,5.22413793 L65.0795455,5.22413793 L65.0795455,5.64655172 C65.2545534,5.33965477 65.581678,5.15435937 65.9318182,5.1637931 C66.2045375,5.16715884 66.4620167,5.29157722 66.6359739,5.50405314 C66.809931,5.71652906 66.8827893,5.995594 66.8352273,6.26724138 L66.8352273,7.81896552 L66.3835227,7.81896552 L66.3835227,6.32758621 C66.4242409,6.14201946 66.3810268,5.9477525 66.2656537,5.79771054 C66.1502805,5.64766858 65.9747679,5.55748321 65.7869318,5.55172414 C65.4987426,5.56128867 65.248566,5.75541086 65.1647727,6.03448276 C65.1528407,6.10870799 65.1528407,6.18439546 65.1647727,6.25862069 L65.1647727,7.81896552 L64.6619318,7.81896552 L64.6619318,5.93103448 Z" id="Path" fill="#FFFFFF"></path>
                        <path d="M67.8494318,6.60344828 C67.8494318,7.07955582 68.2310073,7.46551724 68.7017045,7.46551724 C68.9437748,7.47197649 69.184568,7.42795945 69.4090909,7.3362069 L69.4943182,7.67241379 C69.2246235,7.7865152 68.9343189,7.84230706 68.6420455,7.8362069 C68.296173,7.85470583 67.9592283,7.72135668 67.7176048,7.47035049 C67.4759813,7.2193443 67.353178,6.87509249 67.3806818,6.52586207 C67.3572804,6.17954907 67.4753481,5.83868652 67.7073138,5.58287248 C67.9392795,5.32705845 68.2648342,5.1786899 68.6079545,5.17241379 C68.9108242,5.17803686 69.1975052,5.3117784 69.3983523,5.54114772 C69.5991994,5.77051704 69.6958314,6.07452259 69.6647727,6.37931034 C69.6715491,6.45386578 69.6715491,6.52889284 69.6647727,6.60344828 L67.8494318,6.60344828 Z M69.2130682,6.26724138 C69.2398575,6.0775716 69.1853827,5.88534968 69.0633215,5.73883873 C68.9412602,5.59232779 68.7632056,5.50544321 68.5738636,5.5 C68.1735901,5.5270357 67.8615205,5.86148142 67.8579545,6.26724138 L69.2130682,6.26724138 Z" id="Shape" fill="#FFFFFF" fill-rule="nonzero"></path>
                        <path d="M21.4772727,10.2672414 L18.3323864,19.637931 L19.7727273,19.637931 L20.7102273,16.7586207 L23.7528409,16.7586207 L24.7159091,19.637931 L26.1988636,19.637931 L23.0113636,10.2672414 L21.4772727,10.2672414 Z M22.2272727,11.8103448 C22.3295455,12.2241379 22.4488636,12.6724138 22.59375,13.1293103 L23.4460227,15.612069 L21.0340909,15.612069 L21.8863636,13.112069 C21.9971591,12.7068966 22.1164773,12.2758621 22.2272727,11.8103448 Z" id="Shape" fill="#FFFFFF" fill-rule="nonzero"></path>
                        <path d="M30.2727273,12.6982759 C29.3970657,12.6647907 28.5626309,13.0754854 28.0482955,13.7931034 L27.9971591,12.8448276 L26.71875,12.8448276 L26.71875,12.9310345 C26.71875,13.5086207 26.7698864,14.1465517 26.7698864,15.0689655 L26.7698864,22.2844828 L28.1676136,22.2844828 L28.1676136,18.9655172 C28.6477735,19.5277004 29.350922,19.843803 30.0852273,19.8275862 C30.8873522,19.8341771 31.6560816,19.5031654 32.2073864,18.9137931 C32.8552046,18.1618382 33.191048,17.1859621 33.1448864,16.1896552 C33.166719,15.2824725 32.8640838,14.3978038 32.2926136,13.6982759 C31.7979131,13.0801404 31.0588168,12.7142306 30.2727273,12.6982759 Z M29.9232955,13.8706897 C31.1761364,13.8706897 31.7301136,15.0431034 31.7301136,16.1982759 C31.7301136,17.6982759 31.0142045,18.6206897 29.8721591,18.6206897 C29.0863337,18.6191032 28.4034178,18.0743242 28.21875,17.3017241 C28.1825745,17.1522429 28.1653904,16.9987059 28.1676136,16.8448276 L28.1676136,15.7155172 C28.1719974,15.5967011 28.1862522,15.4784684 28.2102273,15.362069 L28.2102273,15.25 C28.3995102,14.4427334 29.1115875,13.8722287 29.9318182,13.8706897 L29.9232955,13.8706897 Z" id="Shape" fill="#FFFFFF" fill-rule="nonzero"></path>
                        <path d="M37.5,12.6982759 C36.621369,12.6618652 35.7830799,13.0728822 35.2670455,13.7931034 L35.2073864,12.8448276 L33.9289773,12.8448276 L33.9289773,12.9310345 C33.9289773,13.5086207 33.9801136,14.1465517 33.9801136,15.0689655 L33.9801136,22.2844828 L35.3778409,22.2844828 L35.3778409,18.9655172 C35.8572668,19.5287004 36.5609073,19.8450241 37.2954545,19.8275862 C38.0975795,19.8341771 38.8663089,19.5031654 39.4176136,18.9137931 C40.064657,18.1613835 40.4003888,17.1858318 40.3551136,16.1896552 C40.3769463,15.2824725 40.0743111,14.3978038 39.5028409,13.6982759 C39.0119657,13.0846751 38.2800807,12.7192517 37.5,12.6982759 Z M37.1505682,13.8706897 C38.3948864,13.8706897 38.9573864,15.0431034 38.9573864,16.1982759 C38.9573864,17.6982759 38.2414773,18.6206897 37.0994318,18.6206897 C36.3136065,18.6191032 35.6306905,18.0743242 35.4460227,17.3017241 C35.4099383,17.1522265 35.3927556,16.9987013 35.3948864,16.8448276 L35.3948864,15.7155172 C35.3989807,15.5966781 35.4132385,15.4784205 35.4375,15.362069 L35.4375,15.25 C35.6252705,14.4489481 36.3281944,13.8801454 37.1420455,13.8706897 L37.1505682,13.8706897 Z" id="Shape" fill="#FFFFFF" fill-rule="nonzero"></path>
                        <path d="M46.5255682,14.2413793 C45.2215909,13.7327586 44.8210227,13.3275862 44.8210227,12.5862069 C44.8490292,12.1975881 45.0382323,11.8390812 45.3418706,11.5992912 C45.6455088,11.3595012 46.0352511,11.2608016 46.4147727,11.3275862 C46.9899873,11.3123979 47.5584919,11.4554128 48.0596591,11.7413793 L48.1534091,11.8103448 L48.5795455,10.6293103 L48.5028409,10.5862069 C47.8756575,10.2539016 47.173414,10.093412 46.4659091,10.1206897 C44.6761364,10.1206897 43.4318182,11.1896552 43.4318182,12.7068966 C43.4318182,13.9396552 44.2159091,14.8017241 45.8948864,15.4137931 C47.0795455,15.862069 47.5227273,16.3275862 47.5227273,17.137931 C47.5227273,17.9482759 46.8409091,18.5862069 45.7414773,18.5862069 C45.0281813,18.5874181 44.3286849,18.3873972 43.7215909,18.0086207 L43.6022727,17.9310345 L43.2272727,19.137931 L43.2954545,19.1810345 C44.0197129,19.58861 44.835994,19.7994809 45.6647727,19.7931034 C48.0767045,19.7931034 48.9289773,18.3103448 48.9289773,17.0344828 C48.9289773,15.7586207 48.2045455,14.9051724 46.5255682,14.2413793 Z" id="Path" fill="#FFFFFF"></path>
                        <path d="M51.4090909,11.2068966 L50.0369318,11.6465517 L50.0369318,12.8448276 L49.03125,12.8448276 L49.03125,13.9741379 L50.0369318,13.9741379 L50.0369318,17.4224138 C49.9770352,18.0627454 50.1497268,18.7032262 50.5227273,19.2241379 C50.8798692,19.5873668 51.3718806,19.7814255 51.8778409,19.7586207 C52.2456282,19.7627566 52.6114975,19.7044772 52.9602273,19.5862069 L53.0369318,19.5862069 L52.96875,18.4482759 L52.8323864,18.4482759 C52.6217467,18.5078821 52.4032364,18.5340557 52.1846591,18.5258621 C51.6392045,18.5258621 51.4090909,18.1810345 51.4090909,17.362069 L51.4090909,13.9137931 L53.1136364,13.9137931 L53.1136364,12.8448276 L51.4090909,12.8448276 L51.4090909,11.2068966 Z" id="Path" fill="#FFFFFF"></path>
                        <path d="M56.5738636,12.6982759 C55.6470379,12.6857575 54.7577802,13.0682866 54.1237755,13.7522221 C53.4897708,14.4361577 53.1695413,15.3583687 53.2414773,16.2931034 C53.1820735,17.1916886 53.4959418,18.0746073 54.1074724,18.7291678 C54.719003,19.3837283 55.572757,19.7505907 56.4630682,19.7413793 C57.3922798,19.7516563 58.2828842,19.3659894 58.9168824,18.6787806 C59.5508806,17.9915719 59.8697557,17.0662493 59.7954545,16.1293103 C59.8396635,15.213531 59.534581,14.3155364 58.9431818,13.6206897 C58.3184263,12.9873366 57.4572108,12.6520515 56.5738636,12.6982759 Z M56.5738636,13.8189655 C57.8352273,13.8189655 58.40625,15.0603448 58.40625,16.2155172 C58.40625,17.637931 57.6221591,18.6637931 56.5482955,18.6637931 C55.4829545,18.6637931 54.7159091,17.6465517 54.7159091,16.25 C54.65625,15.0431034 55.2357955,13.7931034 56.53125,13.7931034 L56.5738636,13.8189655 Z" id="Shape" fill="#FFFFFF" fill-rule="nonzero"></path>
                        <path d="M64.0994318,12.7672414 L64.0142045,12.7672414 C63.9000937,12.7374696 63.7826129,12.722978 63.6647727,12.7241379 C62.9144969,12.7391283 62.2360517,13.1788571 61.9090909,13.862069 L61.9090909,12.8706897 L60.6136364,12.8706897 L60.6136364,12.9310345 C60.6136364,13.4913793 60.6647727,14.1206897 60.6647727,14.9741379 L60.6647727,19.6034483 L62.0625,19.6034483 L62.0625,16.0258621 C62.0489506,15.8422094 62.0489506,15.6577906 62.0625,15.4741379 C62.1300288,14.6908081 62.760376,14.0790141 63.5369318,14.0431034 C63.6618468,14.0365075 63.7870169,14.0365075 63.9119318,14.0431034 L64.0653409,14.0431034 L64.0653409,12.7672414 L64.0994318,12.7672414 Z" id="Path" fill="#FFFFFF"></path>
                        <path d="M67.2443182,12.6896552 C65.3778409,12.6896552 64.0738636,14.1982759 64.0738636,16.3534483 C63.9932867,17.2707651 64.310775,18.1782266 64.9438504,18.8400893 C65.5769257,19.5019519 66.4630998,19.8528858 67.3721591,19.8017241 C68.1326198,19.8181716 68.8878796,19.6712599 69.5880682,19.3706897 L69.6732955,19.3706897 L69.4005682,18.3189655 L69.28125,18.3706897 C68.7241856,18.5988808 68.1263211,18.7074985 67.5255682,18.6896552 C66.9697232,18.7320119 66.4224978,18.5319441 66.021882,18.1399014 C65.6212662,17.7478587 65.4054948,17.2012578 65.4289773,16.637931 L69.9545455,16.637931 L69.9545455,16.5517241 C69.973218,16.3538981 69.973218,16.1547226 69.9545455,15.9568966 C70.03125,14.4137931 69.2982955,12.6896552 67.2443182,12.6896552 Z M67.1505682,13.7931034 C67.5338626,13.7745897 67.9074845,13.9182604 68.1818182,14.1896552 C68.4969819,14.5582963 68.6695471,15.029884 68.6676297,15.5172414 L65.4715909,15.5172414 C65.5134527,14.5929967 66.2375633,13.8494092 67.1505682,13.7931034 Z" id="Shape" fill="#FFFFFF" fill-rule="nonzero"></path>
                    </g>
                </g>
            </g>
        </g>
    </g>
</svg>