<?xml version="1.0" encoding="UTF-8"?>
<svg width="75px" height="25px" viewBox="0 0 75 25" version="1.1" xmlns="http://www.w3.org/2000/svg" xmlns:xlink="http://www.w3.org/1999/xlink">
    <!-- Generator: Sketch 52.4 (67378) - http://www.bohemiancoding.com/sketch -->
    <title>GooglePlay-Active-01</title>
    <desc>Created with Sketch.</desc>
    <defs>
        <linearGradient x1="50.0508647%" y1="0%" x2="50.0508647%" y2="100%" id="linearGradient-1">
            <stop stop-color="#257CB0" offset="0%"></stop>
            <stop stop-color="#3C8FB3" offset="21%"></stop>
            <stop stop-color="#73BDBA" offset="74%"></stop>
            <stop stop-color="#89CFBD" offset="100%"></stop>
        </linearGradient>
        <linearGradient x1="0%" y1="50%" x2="100%" y2="50%" id="linearGradient-2">
            <stop stop-color="#52C1AD" offset="0%"></stop>
            <stop stop-color="#DEE89A" offset="100%"></stop>
        </linearGradient>
        <linearGradient x1="50.0400962%" y1="0%" x2="50.0400962%" y2="100%" id="linearGradient-3">
            <stop stop-color="#EC413D" offset="0%"></stop>
            <stop stop-color="#D74352" offset="19%"></stop>
            <stop stop-color="#A04888" offset="74%"></stop>
            <stop stop-color="#8A4A9D" offset="100%"></stop>
        </linearGradient>
        <linearGradient x1="50%" y1="0%" x2="50%" y2="100%" id="linearGradient-4">
            <stop stop-color="#F58879" offset="0%"></stop>
            <stop stop-color="#FBB276" offset="62%"></stop>
            <stop stop-color="#FEC874" offset="100%"></stop>
        </linearGradient>
    </defs>
    <g id="Page-1" stroke="none" stroke-width="1" fill="none" fill-rule="evenodd">
        <g id="AthenaKYC-Proto1-Login" transform="translate(-560.000000, -591.000000)">
            <g id="Group-6" transform="translate(474.000000, 591.000000)">
                <g id="Google-Play" transform="translate(86.000000, 0.000000)">
                    <g id="GooglePlay-Active-01">
                        <rect id="Rectangle" fill="#231F20" x="0" y="0" width="75" height="24.8189655" rx="3.89"></rect>
                        <g id="PLAY" transform="translate(5.113636, 4.310345)">
                            <g id="Group">
                                <polygon id="Path" fill="url(#linearGradient-1)" points="0.511363636 0.465517241 0.511363636 8.87068966 0.511363636 17.2758621 8.88920455 8.87068966"></polygon>
                                <polygon id="Path" fill="url(#linearGradient-2)" points="11.1392045 6.61206897 7.75568182 4.63793103 0.511363636 0.405172414 0.511363636 0.465517241 8.88920455 8.87068966"></polygon>
                                <polygon id="Path" fill="url(#linearGradient-3)" points="0.511363636 17.2758621 0.511363636 17.3362069 7.75568182 13.1034483 11.1392045 11.1293103 8.88920455 8.87068966"></polygon>
                                <polygon id="Path" fill="url(#linearGradient-4)" points="11.1392045 6.61206897 8.88920455 8.87068966 11.1392045 11.1293103 15.0085227 8.87068966"></polygon>
                            </g>
                        </g>
                        <path d="M58.3721591,16.4655172 C58.079257,16.4691497 57.7888763,16.4104061 57.5198864,16.2931034 C57.257329,16.1742404 57.0308133,15.9867791 56.8636364,15.75 L56.7954545,15.75 C56.829026,16.0187878 56.8461042,16.289421 56.8465909,16.5603448 L56.8465909,18.5689655 L56.1221591,18.5689655 L56.1221591,11.4913793 L56.71875,11.4913793 L56.8210227,12.1637931 C56.986704,11.9170941 57.2128174,11.7180846 57.4772727,11.5862069 C57.74471,11.4630926 58.0357387,11.4012741 58.3295455,11.4051724 C58.9002935,11.3742296 59.4513266,11.6208805 59.8125,12.0689655 C60.1898023,12.6119374 60.3731524,13.2686399 60.3323864,13.9310345 C60.3733423,14.5974171 60.1868018,15.2578134 59.8039773,15.8017241 C59.4537817,16.234933 58.9252065,16.4799813 58.3721591,16.4655172 Z M58.2613636,12.0689655 C57.8592019,12.0299765 57.4620813,12.1829995 57.1875,12.4827586 C56.9346105,12.8730039 56.8148845,13.3362195 56.8465909,13.8017241 L56.8465909,13.9655172 C56.8034015,14.4809869 56.9227456,14.9970472 57.1875,15.4396552 C57.4599862,15.7552605 57.86601,15.9188951 58.2784091,15.8793103 C58.6700696,15.892537 59.0407031,15.7002003 59.2585227,15.3706897 C59.5181747,14.947629 59.6431248,14.4541206 59.6164773,13.9568966 C59.6470469,13.4620048 59.5217259,12.9700498 59.2585227,12.5517241 C59.0272775,12.2317562 58.6527779,12.0504482 58.2613636,12.0689655 Z" id="Shape" fill="#F9F9F9" fill-rule="nonzero"></path>
                        <polygon id="Path" fill="#F9F9F9" points="62.0710227 16.3793103 61.3636364 16.3793103 61.3636364 9.48275862 62.0965909 9.48275862 62.0965909 16.3793103"></polygon>
                        <path d="M66.2727273,16.3793103 L66.1278409,15.6810345 C65.9383063,15.9429839 65.690029,16.1557067 65.4034091,16.3017241 C65.1197277,16.4190476 64.8148621,16.4748479 64.5085227,16.4655172 C64.100611,16.4907804 63.6984553,16.3582694 63.3835227,16.0948276 C63.0983525,15.8167144 62.9487131,15.4257026 62.9744318,15.0258621 C62.9744318,14.0373563 63.7556818,13.5201149 65.3181818,13.4741379 L66.1704545,13.4741379 L66.1704545,13.1465517 C66.1972539,12.8380719 66.1091,12.5305988 65.9232955,12.2844828 C65.713398,12.0826132 65.4276466,11.982079 65.1392045,12.0086207 C64.6629774,12.0275132 64.1969999,12.1541841 63.7755682,12.3793103 L63.5539773,11.8103448 C63.8016585,11.6745215 64.0650304,11.5702784 64.3380682,11.5 C64.6163476,11.4264264 64.9027136,11.388771 65.1903409,11.387931 C65.6494494,11.3509327 66.1055922,11.4893485 66.46875,11.7758621 C66.7746236,12.1116748 66.9262589,12.5624188 66.8863636,13.0172414 L66.8863636,16.3793103 L66.2727273,16.3793103 Z M64.6193182,15.8534483 C65.0070223,15.8882699 65.3927188,15.7675154 65.6931818,15.5172414 C65.9650685,15.2350299 66.1073117,14.8503121 66.0852273,14.4568966 L66.0852273,13.9741379 L65.3522727,13.9741379 C64.9158022,13.959931 64.4825902,14.0546751 64.0909091,14.25 C63.8398204,14.4168303 63.6941102,14.7050499 63.7073864,15.0086207 C63.6907734,15.2387345 63.7785967,15.4639888 63.9460227,15.6206897 C64.1345203,15.779385 64.3742249,15.862251 64.6193182,15.8534483 Z" id="Shape" fill="#F9F9F9" fill-rule="nonzero"></path>
                        <path d="M67.2443182,11.4913793 L68.0284091,11.4913793 L69.0852273,14.2758621 C69.2608855,14.7251243 69.4061075,15.1859595 69.5198864,15.6551724 C69.5596591,15.5057471 69.6392045,15.2471264 69.7585227,14.8793103 C69.8778409,14.5114943 70.2755682,13.3821839 70.9517045,11.4913793 L71.7357955,11.4913793 L69.65625,17.0603448 C69.516395,17.5066954 69.2671882,17.9100094 68.9318182,18.2327586 C68.6456179,18.4670904 68.2856391,18.5894825 67.9176136,18.5775862 C67.7192267,18.5688932 67.5222098,18.5400118 67.3295455,18.4913793 L67.3295455,17.9051724 C67.5090075,17.9421238 67.6918751,17.9594647 67.875,17.9568966 C68.3857694,17.9518453 68.8280132,17.5968238 68.9488636,17.0948276 L69.1875,16.3793103 L67.2443182,11.4913793 Z" id="Path" fill="#F9F9F9"></path>
                        <path d="M44.8125,11.9396552 C45.2832081,12.2649073 45.553868,12.8134872 45.5278256,13.3894941 C45.5017832,13.965501 45.1827517,14.4868034 44.6846591,14.7672414 C44.5258832,14.8867701 44.4238764,15.0681154 44.4034091,15.2672414 C44.4158237,15.4484448 44.5143025,15.6123205 44.6676136,15.7068966 L45.0340909,15.9913793 C45.5361178,16.2950048 45.8556833,16.8315809 45.8863636,17.4224138 C45.8863636,18.3793103 44.9659091,19.3534483 43.2272727,19.3534483 C41.7613636,19.3534483 41.0539773,18.6465517 41.0539773,17.887931 C41.0728544,17.3609424 41.3685947,16.8842914 41.8295455,16.637931 C42.4270207,16.332219 43.0861393,16.1699704 43.7556818,16.1637931 C43.5890975,15.9879564 43.4868664,15.7598545 43.4659091,15.5172414 C43.4701708,15.3789726 43.5051244,15.2434441 43.5681818,15.1206897 L43.2443182,15.1206897 C42.8042611,15.1517105 42.3711749,14.9968581 42.048152,14.6929937 C41.7251291,14.3891294 41.5410643,13.9634343 41.5397727,13.5172414 C41.5499321,12.9871874 41.7860893,12.4874429 42.1875,12.1465517 C42.705533,11.7499631 43.3455443,11.5514777 43.9943182,11.5862069 L46.0738636,11.5862069 L45.4261364,11.9568966 L44.8125,11.9568966 L44.8125,11.9396552 Z M44.0965909,16.4827586 L43.8664773,16.4827586 C43.5057257,16.4889901 43.1474253,16.5440778 42.8011364,16.6465517 C42.3199833,16.7704881 41.9745722,17.1967334 41.9488636,17.6982759 C41.9488636,18.4224138 42.6477273,18.9482759 43.7301136,18.9482759 C44.8125,18.9482759 45.1704545,18.4655172 45.1704545,17.8275862 C45.1704545,17.1896552 44.8636364,17.0344828 44.0965909,16.4827586 Z M44.3863636,14.5431034 C44.5667425,14.337407 44.6587432,14.0675384 44.6420455,13.7931034 C44.6420455,13.0603448 44.2073864,11.9137931 43.3721591,11.9137931 C43.0994774,11.917494 42.8416387,12.0400397 42.6647727,12.25 C42.5068928,12.469591 42.4286372,12.7375005 42.4431818,13.0086207 C42.4431818,13.6896552 42.8352273,14.8275862 43.7045455,14.8275862 C43.9587183,14.8210187 44.2015333,14.7197062 44.3863636,14.5431034 Z" id="Shape" fill="#F9F9F9" fill-rule="nonzero"></path>
                        <path d="M38.4460227,16.3189655 C37.8007467,16.3423747 37.173804,16.0993457 36.7092654,15.6457263 C36.2447267,15.1921068 35.9825397,14.5669056 35.9829545,13.9137931 C35.9937165,13.2299599 36.2781707,12.5797704 36.7712956,12.1118473 C37.2644204,11.6439243 37.9240602,11.3982691 38.5994318,11.4310345 C39.2373339,11.4170371 39.8536742,11.6648094 40.3080449,12.1179067 C40.7624156,12.571004 41.0161206,13.1908388 41.0113636,13.8362069 C41.0096235,14.5137848 40.7351145,15.1614178 40.2511007,15.6298504 C39.767087,16.098283 39.1153253,16.3471026 38.4460227,16.3189655 Z M39.7073864,15.4568966 C39.9362611,15.1389589 40.0586938,14.755357 40.0568182,14.362069 C40.0568182,13.5 39.6306818,11.7758621 38.3522727,11.7758621 C38.0174008,11.7773094 37.694031,11.8995848 37.4403409,12.1206897 C37.1069274,12.4417529 36.9346717,12.8979334 36.9715909,13.362069 C36.9715909,14.3706897 37.4659091,16.0344828 38.6761364,16.0344828 C39.0812078,16.0358406 39.4632713,15.84421 39.7073864,15.5172414 L39.7073864,15.4568966 Z" id="Shape" fill="#F9F9F9" fill-rule="nonzero"></path>
                        <path d="M32.9829545,16.3189655 C32.3376785,16.3423747 31.7107359,16.0993457 31.2461972,15.6457263 C30.7816585,15.1921068 30.5194715,14.5669056 30.5198864,13.9137931 C30.5306483,13.2299599 30.8151026,12.5797704 31.3082274,12.1118473 C31.8013523,11.6439243 32.460992,11.3982691 33.1363636,11.4310345 C33.7742657,11.4170371 34.3906061,11.6648094 34.8449767,12.1179067 C35.2993474,12.571004 35.5530524,13.1908388 35.5482955,13.8362069 C35.5465553,14.5137848 35.2720463,15.1614178 34.7880326,15.6298504 C34.3040188,16.098283 33.6522571,16.3471026 32.9829545,16.3189655 Z M34.2443182,15.4568966 C34.4651433,15.1241603 34.5728455,14.7277392 34.5511364,14.3275862 C34.5511364,13.4655172 34.125,11.7413793 32.8465909,11.7413793 C32.511719,11.7428267 32.1883492,11.8651021 31.9346591,12.0862069 C31.6236548,12.4216788 31.4767898,12.879981 31.5340909,13.3362069 C31.5340909,14.3448276 32.0284091,16.0086207 33.2386364,16.0086207 C33.630324,16.008165 34.0004863,15.8273025 34.2443182,15.5172414 L34.2443182,15.4568966 Z" id="Shape" fill="#F9F9F9" fill-rule="nonzero"></path>
                        <path d="M29.7528409,16.1551724 L28.3039773,16.4913793 C27.7412361,16.5946352 27.171244,16.6522896 26.5994318,16.6637931 C25.587669,16.7320287 24.5942752,16.3661193 23.8628142,15.6557798 C23.1313532,14.9454403 22.7294635,13.9563561 22.7556818,12.9310345 C22.7649147,11.8616615 23.2101713,10.8435764 23.986246,10.1173336 C24.7623206,9.39109075 25.8003667,9.02111608 26.8551136,9.09482759 C27.3793734,9.09599755 27.9010959,9.16848646 28.40625,9.31034483 C28.8879716,9.43596521 29.341935,9.65239464 29.7443182,9.94827586 L28.8920455,10.7586207 L28.5340909,10.8362069 L28.7897727,10.4224138 C28.2342818,9.81550589 27.4511489,9.47423055 26.6335227,9.48275862 C25.8605563,9.4903493 25.1249758,9.82037191 24.6005964,10.3948433 C24.0762169,10.9693147 23.8095602,11.737269 23.8636364,12.5172414 C23.833649,13.4990616 24.1983964,14.4512463 24.8745673,15.1563087 C25.5507383,15.8613711 26.4805784,16.2590891 27.4517045,16.2586207 C27.8942442,16.2689514 28.3336101,16.1806568 28.7386364,16 L28.7386364,14.3534483 L27.2045455,14.4396552 L28.0568182,14 L30.2045455,14 L29.9403409,14.2586207 C29.8851348,14.2963787 29.8480529,14.3557666 29.8380682,14.4224138 C29.8380682,14.5172414 29.8380682,14.8103448 29.8380682,14.9137931 L29.8380682,16.1637931 L29.7528409,16.1551724 Z" id="Path" fill="#F9F9F9"></path>
                        <path d="M48.0170455,15.862069 C47.6846591,15.862069 47.6079545,15.7672414 47.6079545,15.3706897 L47.6079545,9.48275862 C47.6180186,9.20276367 47.8029898,8.96023008 48.0681818,8.87931034 L46.6193182,8.87931034 L45.8607955,9.25 L46.6363636,9.25 L46.6363636,15.5862069 C46.6255027,15.798114 46.5264072,15.9954508 46.3636364,16.1293103 L48.1619318,16.1293103 L48.5369318,15.9051724 L48.0170455,15.862069 Z" id="Path" fill="#F9F9F9"></path>
                        <path d="M52.1420455,15.9568966 C52.03125,16.0172414 51.9204545,16.0862069 51.8096591,16.137931 C51.5002018,16.2715812 51.1659216,16.3362655 50.8295455,16.3275862 C50.3524132,16.3489413 49.8817733,16.2094618 49.4914773,15.9310345 C48.8347425,15.422708 48.4552717,14.6294541 48.46875,13.7931034 C48.4571859,13.1684167 48.6962491,12.5656262 49.1314175,12.1222073 C49.566586,11.6787884 50.1607528,11.4325517 50.7784091,11.4396552 C51.1444631,11.4344127 51.5046539,11.5329612 51.8181818,11.7241379 C52.1691684,11.9603011 52.4211883,12.3196414 52.5255682,12.7327586 L50.15625,13.6982759 L49.3721591,13.7931034 C49.4735464,14.897281 50.34968,15.7652505 51.4431818,15.8448276 C51.8749516,15.8319836 52.296751,15.7105075 52.6704545,15.4913793 L52.1420455,15.9568966 Z M51.1960227,12.9310345 C51.3450204,12.9201154 51.4659984,12.804945 51.4857955,12.6551724 C51.4133495,12.1559975 50.9873999,11.7877535 50.4886364,11.7931034 C50.1452656,11.8142015 49.8258502,11.9781423 49.6062603,12.2459856 C49.3866704,12.5138289 49.2865011,12.8616735 49.3295455,13.2068966 C49.3295455,13.3793103 49.3295455,13.5603448 49.3295455,13.75 L51.1960227,12.9310345 Z" id="Shape" fill="#F9F9F9" fill-rule="nonzero"></path>
                        <polygon id="Path" fill="#F9F9F9" points="53.1221591 11.5 53.1221591 12.1724138 53.0369318 12.1724138 53.0369318 11.5 52.8409091 11.5 52.8409091 11.4310345 53.3607955 11.4310345 53.3607955 11.5"></polygon>
                        <polygon id="Path" fill="#F9F9F9" points="54.0255682 12.1724138 54.0255682 11.5 54.0255682 11.5 53.8210227 12.1810345 53.7528409 12.1810345 53.5482955 11.5 53.5482955 11.5 53.5482955 12.1810345 53.4715909 12.1810345 53.4715909 11.4310345 53.5994318 11.4310345 53.7869318 12.0689655 53.7869318 12.0689655 53.9744318 11.4655172 54.1022727 11.4655172 54.1022727 12.2068966 54.0255682 12.2068966"></polygon>
                        <path d="M24.7755682,7.12068966 L24.2727273,7.12068966 C24.242336,6.91838568 24.1938413,6.71929194 24.1278409,6.52586207 L23.4034091,6.52586207 C23.3356754,6.71877033 23.2871396,6.91803314 23.2585227,7.12068966 L22.78125,7.12068966 C22.78125,7.12068966 22.9005682,6.74137931 23.1477273,6.10344828 C23.2939231,5.7619227 23.4163796,5.41049445 23.5142045,5.05172414 L24.1107955,5.05172414 C24.200019,5.40608403 24.3110304,5.75446299 24.4431818,6.09482759 C24.5739238,6.42983659 24.684914,6.77239164 24.7755682,7.12068966 Z M24.0511364,6.25862069 C23.945963,5.97608268 23.8549384,5.6883612 23.7784091,5.39655172 C23.7784091,5.39655172 23.6846591,5.73275862 23.4971591,6.25862069 L24.0681818,6.25862069 L24.0511364,6.25862069 Z" id="Shape" fill="#F9F9FA" fill-rule="nonzero"></path>
                        <path d="M26.8039773,7.12068966 L26.4204545,7.12068966 C26.2999425,6.87598657 26.1542502,6.6448228 25.9857955,6.43103448 C25.7753736,6.16833969 25.6005362,5.87842658 25.4659091,5.56896552 C25.477528,5.77857102 25.477528,5.98867036 25.4659091,6.19827586 C25.4659091,6.46264368 25.4659091,6.7816092 25.4659091,7.15517241 L25.1164773,7.15517241 C25.1164773,6.82758621 25.1164773,6.46551724 25.1164773,6.06896552 C25.1164773,5.67241379 25.1164773,5.34195402 25.1164773,5.07758621 L25.5681818,5.07758621 C25.6693525,5.31803883 25.8011498,5.54409005 25.9602273,5.75 C26.1542261,6.01610712 26.3145613,6.30571078 26.4375,6.61206897 C26.4263802,6.39957402 26.4263802,6.18663288 26.4375,5.97413793 C26.4375,5.68678161 26.4375,5.39942529 26.4375,5.11206897 L26.8295455,5.11206897 C26.8295455,5.37643678 26.8295455,5.70689655 26.8295455,6.10344828 C26.8295455,6.5 26.8210227,6.83908046 26.8039773,7.12068966 Z" id="Path" fill="#F9F9FA"></path>
                        <path d="M29.0880682,6.03448276 C29.0923664,6.32610487 28.9890509,6.60887772 28.7982955,6.82758621 C28.5952066,7.05636248 28.3007143,7.17994987 27.9971591,7.1637931 L27.3579545,7.1637931 C27.3579545,6.84195402 27.3579545,6.47988506 27.3579545,6.07758621 C27.3579545,5.67528736 27.3579545,5.34482759 27.3579545,5.0862069 L28.0142045,5.0862069 C28.3258505,5.04946292 28.6376629,5.15354375 28.8664773,5.37068966 C29.0177512,5.55729945 29.0965386,5.7933133 29.0880682,6.03448276 Z M28.6619318,6.10344828 C28.6672567,5.91462754 28.6035292,5.7304563 28.4829545,5.5862069 C28.3442058,5.43852725 28.146745,5.36243947 27.9460227,5.37931034 L27.7585227,5.37931034 C27.7585227,5.59195402 27.7585227,5.81321839 27.7585227,6.04310345 C27.7585227,6.27298851 27.7585227,6.52586207 27.7585227,6.80172414 L27.9630682,6.80172414 C28.155258,6.81625595 28.34255,6.73598273 28.4659091,6.5862069 C28.5839963,6.44262186 28.6527877,6.26412873 28.6619318,6.07758621 L28.6619318,6.10344828 Z" id="Shape" fill="#F9F9FA" fill-rule="nonzero"></path>
                        <path d="M31.1931818,7.12068966 L30.7244318,7.12068966 C30.6587697,6.87734278 30.5643381,6.64289206 30.4431818,6.42241379 C30.3654212,6.32957198 30.2475658,6.28124355 30.1278409,6.29310345 L29.9573864,6.29310345 C29.9573864,6.56896552 29.9573864,6.85632184 29.9573864,7.15517241 L29.53125,7.15517241 C29.53125,6.83333333 29.53125,6.47126437 29.53125,6.06896552 C29.53125,5.66666667 29.53125,5.3362069 29.53125,5.07758621 L30.28125,5.07758621 C30.7642045,5.07758621 31.0056818,5.24425287 31.0056818,5.57758621 C31.0106058,5.83464744 30.8419441,6.06211457 30.5965909,6.12931034 C30.7191227,6.17211724 30.8201263,6.26189818 30.8778409,6.37931034 C31.000625,6.6183579 31.106018,6.86614095 31.1931818,7.12068966 Z M30.6051136,5.65517241 C30.6053263,5.55451152 30.5597742,5.45934051 30.4815797,5.3970756 C30.4033852,5.33481069 30.3012312,5.31236587 30.2045455,5.3362069 L29.9403409,5.3362069 C29.9403409,5.50287356 29.9403409,5.7183908 29.9403409,5.98275862 L30.0852273,5.98275862 C30.4318182,6.01724138 30.6051136,5.90804598 30.6051136,5.65517241 Z" id="Shape" fill="#F9F9FA" fill-rule="nonzero"></path>
                        <path d="M33.4517045,6.03448276 C33.4746013,6.35122519 33.3665869,6.66338508 33.1534091,6.89655172 C32.9661735,7.10506116 32.6988737,7.2213841 32.4204545,7.21551724 C32.1559398,7.21346011 31.9048363,7.09744009 31.7301136,6.89655172 C31.5412804,6.69446351 31.4400353,6.4244768 31.4488636,6.14655172 C31.4399266,5.84741032 31.54698,5.55659094 31.7471591,5.3362069 C31.9293072,5.12358066 32.1934448,5.0009951 32.4715909,5 C32.7351074,4.99298101 32.9891643,5.09953248 33.1704545,5.29310345 C33.3571715,5.49305835 33.4582546,5.75951484 33.4517045,6.03448276 Z M33.0170455,6.07758621 C33.0227302,5.88224217 32.9626271,5.69074107 32.8465909,5.53448276 C32.7473368,5.40287944 32.5926159,5.32622671 32.4289773,5.32758621 C32.2726873,5.32746344 32.1262404,5.40474878 32.0369318,5.53448276 C31.9275577,5.68714361 31.870676,5.87186274 31.875,6.06034483 C31.8693152,6.25568887 31.9294184,6.44718997 32.0454545,6.60344828 C32.1447086,6.7350516 32.2994295,6.81170433 32.4630682,6.81034483 C32.6193582,6.81046759 32.7658051,6.73318225 32.8551136,6.60344828 C32.9609864,6.4555352 33.0176884,6.2774366 33.0170455,6.09482759 L33.0170455,6.07758621 Z" id="Shape" fill="#F9F9FA" fill-rule="nonzero"></path>
                        <path d="M34.3380682,7.12068966 L33.8948864,7.12068966 C33.8948864,6.79310345 33.8948864,6.43103448 33.8948864,6.03448276 C33.8948864,5.63793103 33.8948864,5.30747126 33.8948864,5.04310345 L34.3380682,5.04310345 C34.3380682,5.31321839 34.3380682,5.64367816 34.3380682,6.03448276 C34.3380682,6.42528736 34.3380682,6.78735632 34.3380682,7.12068966 Z" id="Path" fill="#F9F9FA"></path>
                        <path d="M36.6477273,6.03448276 C36.6520255,6.32610487 36.54871,6.60887772 36.3579545,6.82758621 C36.1548657,7.05636248 35.8603734,7.17994987 35.5568182,7.1637931 L34.9176136,7.1637931 C34.9346591,6.81321839 34.9431818,6.43678161 34.9431818,6.03448276 C34.9431818,5.63218391 34.9431818,5.30172414 34.9431818,5.04310345 L35.5994318,5.04310345 C35.9110778,5.00635947 36.2228902,5.1104403 36.4517045,5.32758621 C36.6040748,5.52916105 36.6742313,5.78215917 36.6477273,6.03448276 Z M36.2215909,6.10344828 C36.2269158,5.91462754 36.1631883,5.7304563 36.0426136,5.5862069 C35.9038649,5.43852725 35.7064041,5.36243947 35.5056818,5.37931034 L35.3181818,5.37931034 C35.3181818,5.59195402 35.3181818,5.81321839 35.3181818,6.04310345 C35.3181818,6.27298851 35.3181818,6.52586207 35.3181818,6.80172414 L35.5227273,6.80172414 C35.7149171,6.81625595 35.9022091,6.73598273 36.0255682,6.5862069 C36.1344785,6.43934986 36.1941955,6.26115983 36.1960227,6.07758621 L36.2215909,6.10344828 Z" id="Shape" fill="#F9F9FA" fill-rule="nonzero"></path>
                        <path d="M39.65625,7.12068966 L39.1534091,7.12068966 C39.123064,6.91837639 39.0745683,6.71927845 39.0085227,6.52586207 L38.2755682,6.52586207 C38.2078345,6.71877033 38.1592987,6.91803314 38.1306818,7.12068966 L37.6534091,7.12068966 C37.6534091,7.12068966 37.7727273,6.74137931 38.0198864,6.10344828 C38.1548966,5.75823831 38.2659611,5.40393192 38.3522727,5.04310345 L38.9488636,5.04310345 C39.0381085,5.39745713 39.1491195,5.74583476 39.28125,6.0862069 C39.4267272,6.42308309 39.5519552,6.76853969 39.65625,7.12068966 Z M38.9318182,6.25862069 C38.8266856,5.97606831 38.7356617,5.68834892 38.6590909,5.39655172 C38.6590909,5.39655172 38.5653409,5.73275862 38.3778409,6.25862069 L38.9488636,6.25862069 L38.9318182,6.25862069 Z" id="Shape" fill="#F9F9FA" fill-rule="nonzero"></path>
                        <path d="M41.4886364,5.5862069 C41.5021998,5.81073969 41.3945965,6.02512172 41.2073864,6.14655172 C41.0021169,6.27211229 40.7653416,6.33498022 40.5255682,6.32758621 L40.4232955,6.32758621 C40.4232955,6.52873563 40.4232955,6.79310345 40.4232955,7.12068966 L39.9971591,7.12068966 C40.0369318,6.81609195 40.0568182,6.45402299 40.0568182,6.03448276 C40.0568182,5.61494253 40.0568182,5.28448276 40.0568182,5.04310345 L40.8409091,5.04310345 C41.0182771,5.03813443 41.1931648,5.08610674 41.34375,5.18103448 C41.454649,5.28399695 41.5087571,5.4353096 41.4886364,5.5862069 Z M41.0795455,5.67241379 C41.0795455,5.44252874 40.9318182,5.32758621 40.6363636,5.32758621 L40.3977273,5.32758621 C40.3977273,5.52873563 40.3977273,5.75574713 40.3977273,6.00862069 L40.4914773,6.00862069 C40.8892045,6.02586207 41.0880682,5.91666667 41.0880682,5.68103448 L41.0795455,5.67241379 Z" id="Shape" fill="#F9F9FA" fill-rule="nonzero"></path>
                        <path d="M43.3806818,5.5862069 C43.3942452,5.81073969 43.2866419,6.02512172 43.0994318,6.14655172 C42.8941624,6.27211229 42.6573871,6.33498022 42.4176136,6.32758621 L42.3068182,6.32758621 C42.3068182,6.52873563 42.3068182,6.79310345 42.3068182,7.12068966 L41.8806818,7.12068966 C41.8806818,6.81609195 41.8806818,6.45402299 41.8806818,6.03448276 C41.8806818,5.61494253 41.8806818,5.28448276 41.8806818,5.04310345 L42.6647727,5.04310345 C42.8421407,5.03813443 43.0170284,5.08610674 43.1676136,5.18103448 C43.3040906,5.26883761 43.3849821,5.42266157 43.3806818,5.5862069 Z M42.9715909,5.67241379 C42.9715909,5.44252874 42.8238636,5.32758621 42.5284091,5.32758621 L42.2897727,5.32758621 C42.2897727,5.52873563 42.2897727,5.75574713 42.2897727,6.00862069 L42.3835227,6.00862069 C42.7755682,6.02586207 42.9715909,5.91666667 42.9715909,5.68103448 L42.9715909,5.67241379 Z" id="Shape" fill="#F9F9FA" fill-rule="nonzero"></path>
                        <path d="M46.4659091,6.03448276 C46.4748461,6.33362416 46.3677928,6.62444354 46.1676136,6.84482759 C45.9803781,7.05333702 45.7130782,7.16965996 45.4346591,7.1637931 C45.1779063,7.17513504 44.92798,7.0783848 44.7443182,6.89655172 C44.5554849,6.69446351 44.4542399,6.4244768 44.4630682,6.14655172 C44.4541312,5.84741032 44.5611845,5.55659094 44.7613636,5.3362069 C44.9485992,5.12769746 45.215899,5.01137452 45.4943182,5.01724138 C45.7578347,5.01022239 46.0118916,5.11677386 46.1931818,5.31034483 C46.3726461,5.50734657 46.4703005,5.76663569 46.4659091,6.03448276 Z M46.0227273,6.09482759 C46.0284121,5.89948355 45.9683089,5.70798245 45.8522727,5.55172414 C45.7530187,5.42012082 45.5982977,5.34346809 45.4346591,5.34482759 C45.2783691,5.34470482 45.1319222,5.42199016 45.0426136,5.55172414 C44.9332395,5.70438499 44.8763578,5.88910412 44.8806818,6.07758621 C44.874997,6.27293025 44.9351002,6.46443135 45.0511364,6.62068966 C45.1503904,6.75229298 45.3051113,6.8289457 45.46875,6.82758621 C45.62504,6.82770897 45.7714869,6.75042363 45.8607955,6.62068966 C45.9701696,6.4680288 46.0270513,6.28330968 46.0227273,6.09482759 Z" id="Shape" fill="#F9F9FA" fill-rule="nonzero"></path>
                        <path d="M48.5795455,7.12068966 L48.2130682,7.12068966 C48.0925561,6.87598657 47.9468638,6.6448228 47.7784091,6.43103448 C47.5679872,6.16833969 47.3931498,5.87842658 47.2585227,5.56896552 C47.2701417,5.77857102 47.2701417,5.98867036 47.2585227,6.19827586 C47.2585227,6.46264368 47.2585227,6.7816092 47.2585227,7.15517241 L46.875,7.15517241 C46.875,6.82758621 46.875,6.46551724 46.875,6.06896552 C46.875,5.67241379 46.875,5.34195402 46.875,5.07758621 L47.34375,5.07758621 C47.4449207,5.31803883 47.576718,5.54409005 47.7357955,5.75 C47.9297943,6.01610712 48.0901294,6.30571078 48.2130682,6.61206897 C48.2019484,6.39957402 48.2019484,6.18663288 48.2130682,5.97413793 C48.2130682,5.68678161 48.2130682,5.39942529 48.2130682,5.11206897 L48.5795455,5.11206897 C48.5795455,5.33045977 48.5795455,5.63793103 48.5795455,6.03448276 C48.5795455,6.43103448 48.5795455,6.79310345 48.5795455,7.12068966 Z" id="Path" fill="#F9F9FA"></path>
                    </g>
                </g>
            </g>
        </g>
    </g>
</svg>