<?xml version="1.0" encoding="UTF-8"?>
<svg width="75px" height="25px" viewBox="0 0 75 25" version="1.1" xmlns="http://www.w3.org/2000/svg" xmlns:xlink="http://www.w3.org/1999/xlink">
    <!-- Generator: Sketch 52.4 (67378) - http://www.bohemiancoding.com/sketch -->
    <title>GooglePlay-NotAct-01</title>
    <desc>Created with Sketch.</desc>
    <defs>
        <linearGradient x1="50.0508647%" y1="0%" x2="50.0508647%" y2="100%" id="linearGradient-1">
            <stop stop-color="#257CB0" offset="0%"></stop>
            <stop stop-color="#3C8FB3" offset="21%"></stop>
            <stop stop-color="#73BDBA" offset="74%"></stop>
            <stop stop-color="#89CFBD" offset="100%"></stop>
        </linearGradient>
        <linearGradient x1="0%" y1="50%" x2="100%" y2="50%" id="linearGradient-2">
            <stop stop-color="#52C1AD" offset="0%"></stop>
            <stop stop-color="#DEE89A" offset="100%"></stop>
        </linearGradient>
        <linearGradient x1="50.0400962%" y1="0%" x2="50.0400962%" y2="100%" id="linearGradient-3">
            <stop stop-color="#EC413D" offset="0%"></stop>
            <stop stop-color="#D74352" offset="19%"></stop>
            <stop stop-color="#A04888" offset="74%"></stop>
            <stop stop-color="#8A4A9D" offset="100%"></stop>
        </linearGradient>
        <linearGradient x1="50%" y1="0%" x2="50%" y2="100%" id="linearGradient-4">
            <stop stop-color="#F58879" offset="0%"></stop>
            <stop stop-color="#FBB276" offset="62%"></stop>
            <stop stop-color="#FEC874" offset="100%"></stop>
        </linearGradient>
    </defs>
    <g id="Page-1" stroke="none" stroke-width="1" fill="none" fill-rule="evenodd">
        <g id="AthenaKYC-Proto1-Login" transform="translate(-560.000000, -591.000000)">
            <g id="Group-6" transform="translate(474.000000, 591.000000)">
                <g id="Google-Play" transform="translate(86.000000, 0.000000)">
                    <g id="GooglePlay-NotAct-01">
                        <rect id="Rectangle" fill="#A7A9AC" x="0" y="0" width="75" height="24.8189655" rx="3.89"></rect>
                        <g id="PLAY" transform="translate(5.113636, 4.310345)">
                            <g id="Group">
                                <polygon id="Path" fill="url(#linearGradient-1)" points="0.511363636 0.405172414 0.511363636 8.80172414 0.511363636 17.2068966 8.88920455 8.80172414"></polygon>
                                <polygon id="Path" fill="url(#linearGradient-2)" points="11.1392045 6.55172414 7.75568182 4.56896552 0.511363636 0.336206897 0.511363636 0.405172414 8.88920455 8.80172414"></polygon>
                                <polygon id="Path" fill="url(#linearGradient-3)" points="0.511363636 17.2068966 0.511363636 17.2672414 7.75568182 13.0344828 11.1392045 11.0603448 8.88920455 8.80172414"></polygon>
                                <polygon id="Path" fill="url(#linearGradient-4)" points="11.1392045 6.55172414 8.88920455 8.80172414 11.1392045 11.0603448 15.0085227 8.80172414"></polygon>
                            </g>
                        </g>
                        <path d="M58.3721591,16.3793103 C58.079257,16.3829429 57.7888763,16.3241992 57.5198864,16.2068966 C57.257329,16.0880335 57.0308133,15.9005722 56.8636364,15.6637931 L56.7954545,15.6637931 C56.8290043,15.932583 56.8460824,16.2032148 56.8465909,16.4741379 L56.8465909,18.4827586 L56.1221591,18.4827586 L56.1221591,11.4224138 L56.71875,11.4224138 L56.8125,12.0689655 C56.9781813,11.8222665 57.2042947,11.623257 57.46875,11.4913793 C57.7361873,11.368265 58.0272159,11.3064465 58.3210227,11.3103448 C58.8917707,11.2794021 59.4428039,11.5260529 59.8039773,11.9741379 C60.1812795,12.5171099 60.3646297,13.1738123 60.3238636,13.8362069 C60.3648195,14.5025895 60.178279,15.1629858 59.7954545,15.7068966 C59.4488131,16.1409094 58.9236833,16.3889988 58.3721591,16.3793103 Z M58.2698864,11.9396552 C57.8677246,11.9006662 57.470604,12.0536891 57.1960227,12.3534483 C56.9431332,12.7436936 56.8234073,13.2069091 56.8551136,13.6724138 L56.8551136,13.8362069 C56.8119242,14.3516765 56.9312683,14.8677368 57.1960227,15.3103448 C57.4693373,15.6247645 57.8747375,15.7881477 58.2869318,15.75 C58.6785924,15.7632267 59.0492259,15.5708899 59.2670455,15.2413793 C59.5266974,14.8183186 59.6516475,14.3248102 59.625,13.8275862 C59.6555696,13.3326944 59.5302487,12.8407395 59.2670455,12.4224138 C59.0284819,12.1095443 58.6510448,11.9380689 58.2613636,11.9655172 L58.2698864,11.9396552 Z" id="Shape" fill="#F9F9F9" fill-rule="nonzero"></path>
                        <polygon id="Path" fill="#F9F9F9" points="62.0710227 16.3103448 61.3636364 16.3103448 61.3636364 9.4137931 62.0965909 9.4137931 62.0965909 16.3103448"></polygon>
                        <path d="M66.2727273,16.3103448 L66.1278409,15.612069 C65.9383063,15.8740184 65.690029,16.0867412 65.4034091,16.2327586 C65.1197277,16.3500821 64.8148621,16.4058823 64.5085227,16.3965517 C64.100611,16.4218149 63.6984553,16.2893039 63.3835227,16.0258621 C63.0983525,15.7477489 62.9487131,15.356737 62.9744318,14.9568966 C62.9744318,13.9683908 63.7556818,13.4511494 65.3181818,13.4051724 L66.1704545,13.4051724 L66.1704545,13.0775862 C66.1972539,12.7691064 66.1091,12.4616333 65.9232955,12.2155172 C65.713398,12.0136477 65.4276466,11.9131135 65.1392045,11.9396552 C64.6629774,11.9585477 64.1969999,12.0852186 63.7755682,12.3103448 L63.5539773,11.7413793 C63.8016585,11.605556 64.0650304,11.5013129 64.3380682,11.4310345 C64.6163476,11.3574609 64.9027136,11.3198054 65.1903409,11.3189655 C65.6494494,11.2819672 66.1055922,11.420383 66.46875,11.7068966 C66.7746236,12.0427093 66.9262589,12.4934533 66.8863636,12.9482759 L66.8863636,16.2844828 L66.2727273,16.2844828 L66.2727273,16.3103448 Z M64.6193182,15.7844828 C65.0128879,15.807449 65.3993009,15.6709601 65.6931818,15.4051724 C65.9650685,15.1229609 66.1073117,14.7382432 66.0852273,14.3448276 L66.0852273,13.9051724 L65.3522727,13.9051724 C64.9158022,13.8909654 64.4825902,13.9857095 64.0909091,14.1810345 C63.8398204,14.3478648 63.6941102,14.6360844 63.7073864,14.9396552 C63.6907734,15.169769 63.7785967,15.3950233 63.9460227,15.5517241 C64.133284,15.7135252 64.3731177,15.7995067 64.6193182,15.7931034 L64.6193182,15.7844828 Z" id="Shape" fill="#F9F9F9" fill-rule="nonzero"></path>
                        <path d="M67.2443182,11.4224138 L68.0284091,11.4224138 L69.0852273,14.2068966 C69.2608606,14.6561677 69.4060821,15.1170012 69.5198864,15.5862069 C69.5596591,15.4367816 69.6392045,15.1781609 69.7585227,14.8103448 C69.8778409,14.4425287 70.2755682,13.3132184 70.9517045,11.4224138 L71.7357955,11.4224138 L69.65625,16.9913793 C69.516395,17.4377299 69.2671882,17.8410439 68.9318182,18.1637931 C68.6456179,18.3981249 68.2856391,18.5205169 67.9176136,18.5086207 C67.719516,18.5027545 67.5225029,18.4767617 67.3295455,18.4310345 L67.3295455,17.8362069 C67.5090075,17.8731583 67.6918751,17.8904992 67.875,17.887931 C68.3857694,17.8828798 68.8280132,17.5278583 68.9488636,17.0258621 L69.1875,16.3793103 L67.2443182,11.4224138 Z" id="Path" fill="#F9F9F9"></path>
                        <path d="M44.8125,11.8793103 C45.2832081,12.2045625 45.553868,12.7531424 45.5278256,13.3291493 C45.5017832,13.9051562 45.1827517,14.4264586 44.6846591,14.7068966 C44.5258832,14.8264252 44.4238764,15.0077706 44.4034091,15.2068966 C44.4158237,15.3881 44.5143025,15.5519756 44.6676136,15.6465517 L45.0340909,15.9310345 C45.5361178,16.2346599 45.8556833,16.7712361 45.8863636,17.362069 C45.8863636,18.3189655 44.9659091,19.2931034 43.2272727,19.2931034 C41.7613636,19.2931034 41.0539773,18.5862069 41.0539773,17.8275862 C41.0728544,17.3005975 41.3685947,16.8239466 41.8295455,16.5775862 C42.4270207,16.2718742 43.0861393,16.1096255 43.7556818,16.1034483 C43.5818592,15.9186741 43.4790819,15.6771231 43.4659091,15.4224138 C43.4701708,15.2841451 43.5051244,15.1486165 43.5681818,15.0258621 L43.2443182,15.0258621 C42.8042611,15.0568829 42.3711749,14.9020305 42.048152,14.5981662 C41.7251291,14.2943018 41.5410643,13.8686067 41.5397727,13.4224138 C41.5569147,12.8970491 41.7958322,12.4043063 42.1960227,12.0689655 C42.7140557,11.6723768 43.354067,11.4738915 44.0028409,11.5086207 L46.0823864,11.5086207 L45.4346591,11.8793103 L44.8125,11.8793103 Z M44.0965909,16.3793103 L43.8664773,16.3793103 C43.5057171,16.3854381 43.1474031,16.4405279 42.8011364,16.5431034 C42.3199833,16.6670398 41.9745722,17.0932851 41.9488636,17.5948276 C41.9488636,18.3189655 42.6477273,18.8448276 43.7301136,18.8448276 C44.8125,18.8448276 45.1704545,18.3965517 45.1704545,17.7672414 C45.1704545,17.137931 44.8636364,16.9655172 44.0965909,16.3793103 Z M44.3863636,14.4396552 C44.5667425,14.2339587 44.6587432,13.9640902 44.6420455,13.6896552 C44.6420455,12.9568966 44.2073864,11.8103448 43.3721591,11.8103448 C43.0994774,11.8140458 42.8416387,11.9365914 42.6647727,12.1465517 C42.5068928,12.3661427 42.4286372,12.6340523 42.4431818,12.9051724 C42.4431818,13.5862069 42.8352273,14.7241379 43.7045455,14.7241379 C43.9542469,14.7270535 44.196512,14.6382229 44.3863636,14.4741379 L44.3863636,14.4396552 Z" id="Shape" fill="#F9F9F9" fill-rule="nonzero"></path>
                        <path d="M38.4460227,16.25 C37.8007467,16.2734092 37.173804,16.0303802 36.7092654,15.5767607 C36.2447267,15.1231413 35.9825397,14.4979401 35.9829545,13.8448276 C35.9937165,13.1609944 36.2781707,12.5108048 36.7712956,12.0428818 C37.2644204,11.5749588 37.9240602,11.3293036 38.5994318,11.362069 C39.2418273,11.3478823 39.8621864,11.5991642 40.3173403,12.0579229 C40.7724943,12.5166817 41.0231151,13.1432779 41.0113636,13.7931034 C41.0027291,14.4661747 40.7252029,15.1070703 40.2419702,15.5698753 C39.7587376,16.0326803 39.1109252,16.2780066 38.4460227,16.25 Z M39.7073864,15.387931 C39.9362611,15.0699934 40.0586938,14.6863915 40.0568182,14.2931034 C40.0568182,13.4310345 39.6306818,11.7068966 38.3522727,11.7068966 C38.0174008,11.7083439 37.694031,11.8306193 37.4403409,12.0517241 C37.1069274,12.3727873 36.9346717,12.8289679 36.9715909,13.2931034 C36.9715909,14.3017241 37.4659091,15.9655172 38.6761364,15.9655172 C39.08575,15.9608141 39.4686822,15.7591445 39.7073864,15.4224138 L39.7073864,15.387931 Z" id="Shape" fill="#F9F9F9" fill-rule="nonzero"></path>
                        <path d="M32.9829545,16.25 C32.3376785,16.2734092 31.7107359,16.0303802 31.2461972,15.5767607 C30.7816585,15.1231413 30.5194715,14.4979401 30.5198864,13.8448276 C30.5306483,13.1609944 30.8151026,12.5108048 31.3082274,12.0428818 C31.8013523,11.5749588 32.460992,11.3293036 33.1363636,11.362069 C33.7787592,11.3478823 34.3991182,11.5991642 34.8542721,12.0579229 C35.3094261,12.5166817 35.5600469,13.1432779 35.5482955,13.7931034 C35.5396609,14.4661747 35.2621347,15.1070703 34.7789021,15.5698753 C34.2956694,16.0326803 33.647857,16.2780066 32.9829545,16.25 Z M34.2443182,15.387931 C34.4651433,15.0551948 34.5728455,14.6587736 34.5511364,14.2586207 C34.5511364,13.3965517 34.125,11.6724138 32.8465909,11.6724138 C32.511719,11.6738612 32.1883492,11.7961366 31.9346591,12.0172414 C31.6211966,12.3547357 31.4741466,12.8167797 31.5340909,13.2758621 C31.5340909,14.2844828 32.0284091,15.9482759 33.2386364,15.9482759 C33.6361788,15.9395551 34.0074101,15.7454415 34.2443182,15.4224138 L34.2443182,15.387931 Z" id="Shape" fill="#F9F9F9" fill-rule="nonzero"></path>
                        <path d="M29.7528409,16.0948276 L28.3039773,16.4310345 C27.7412361,16.5342904 27.171244,16.5919448 26.5994318,16.6034483 C25.5982042,16.6706765 24.6145763,16.3127796 23.8851134,15.6158327 C23.1556506,14.9188858 22.7463617,13.9459557 22.7556818,12.9310345 C22.7649147,11.8616615 23.2101713,10.8435764 23.986246,10.1173336 C24.7623206,9.39109075 25.8003667,9.02111608 26.8551136,9.09482759 C27.3793734,9.09599755 27.9010959,9.16848646 28.40625,9.31034483 C28.8879716,9.43596521 29.341935,9.65239464 29.7443182,9.94827586 L28.8920455,10.7586207 L28.5340909,10.8362069 L28.8068182,10.3448276 C28.2519173,9.723864 27.4610199,9.37249664 26.6335227,9.37931034 C25.8541585,9.38623343 25.1128073,9.72095744 24.587324,10.30318 C24.0618406,10.8854025 23.7996439,11.6625848 23.8636364,12.4482759 C23.833649,13.4300961 24.1983964,14.3822808 24.8745673,15.0873432 C25.5507383,15.7924056 26.4805784,16.1901236 27.4517045,16.1896552 C27.8942442,16.1999859 28.3336101,16.1116913 28.7386364,15.9310345 L28.7386364,14.2844828 L27.2045455,14.3706897 L28.0568182,13.9310345 L30.2045455,13.9310345 L29.9403409,14.1896552 C29.8851348,14.2274132 29.8480529,14.2868011 29.8380682,14.3534483 C29.8380682,14.4482759 29.8380682,14.7413793 29.8380682,14.8448276 L29.8380682,16.0948276 L29.7528409,16.0948276 Z" id="Path" fill="#F9F9F9"></path>
                        <path d="M48.0170455,15.8017241 C47.6846591,15.8017241 47.6079545,15.7068966 47.6079545,15.3103448 L47.6079545,9.43103448 C47.6180186,9.15103953 47.8029898,8.90850594 48.0681818,8.82758621 L46.6193182,8.82758621 L45.8607955,9.19827586 L46.6363636,9.19827586 L46.6363636,15.5172414 C46.6255027,15.7291485 46.5264072,15.9264852 46.3636364,16.0603448 L48.1619318,16.0603448 L48.5369318,15.8362069 L48.0170455,15.8017241 Z" id="Path" fill="#F9F9F9"></path>
                        <path d="M52.1420455,15.887931 C52.03125,15.9482759 51.9204545,16.0172414 51.8096591,16.0689655 C51.5001238,16.2023573 51.1658997,16.2670307 50.8295455,16.2586207 C50.3524132,16.2799757 49.8817733,16.1404963 49.4914773,15.862069 C48.829094,15.3537384 48.446037,14.5564036 48.4602273,13.7155172 C48.4486632,13.0908305 48.6877263,12.48804 49.1228948,12.0446211 C49.5580633,11.6012022 50.15223,11.3549655 50.7698864,11.362069 C51.1359404,11.3568264 51.4961311,11.455375 51.8096591,11.6465517 C52.1606457,11.8827149 52.4126655,12.2420552 52.5170455,12.6551724 L50.1477273,13.6206897 L49.3721591,13.6810345 C49.4735464,14.7852121 50.34968,15.6531815 51.4431818,15.7327586 C51.8749516,15.7199146 52.296751,15.5984386 52.6704545,15.3793103 L52.1420455,15.887931 Z M51.1960227,12.8534483 C51.3450204,12.8425292 51.4659984,12.7273588 51.4857955,12.5775862 C51.4133495,12.0784113 50.9873999,11.7101673 50.4886364,11.7155172 C50.1452656,11.7366152 49.8258502,11.9005561 49.6062603,12.1683994 C49.3866704,12.4362427 49.2865011,12.7840873 49.3295455,13.1293103 C49.3295455,13.3017241 49.3295455,13.4827586 49.3295455,13.6724138 L51.1960227,12.8534483 Z" id="Shape" fill="#F9F9F9" fill-rule="nonzero"></path>
                        <polygon id="Path" fill="#F9F9F9" points="53.1221591 11.4396552 53.1221591 12.0689655 53.0369318 12.0689655 53.0369318 11.4396552 52.8409091 11.4396552 52.8409091 11.3706897 53.3607955 11.3706897 53.3607955 11.4396552"></polygon>
                        <polygon id="Path" fill="#F9F9F9" points="54.0255682 12.0689655 54.0255682 11.4310345 54.0255682 11.4310345 53.8125 12.0689655 53.7528409 12.0689655 53.5482955 11.387931 53.5482955 11.387931 53.5482955 12.0689655 53.4715909 12.0689655 53.4715909 11.3706897 53.5994318 11.3706897 53.7869318 11.9741379 53.7869318 11.9741379 53.9744318 11.3706897 54.1022727 11.3706897 54.1022727 12.0689655"></polygon>
                        <path d="M24.7755682,7.06034483 L24.2727273,7.06034483 C24.242336,6.85804086 24.1938413,6.65894712 24.1278409,6.46551724 L23.4034091,6.46551724 C23.3356754,6.6584255 23.2871396,6.85768831 23.2585227,7.06034483 L22.78125,7.06034483 C22.78125,7.06034483 22.9005682,6.68103448 23.1477273,6.04310345 C23.2939231,5.70157787 23.4163796,5.35014962 23.5142045,4.99137931 L24.1107955,4.99137931 C24.200019,5.3457392 24.3110304,5.69411816 24.4431818,6.03448276 C24.573905,6.36949862 24.6848948,6.71205253 24.7755682,7.06034483 Z M24.0511364,6.19827586 C23.945963,5.91573786 23.8549384,5.62801637 23.7784091,5.3362069 C23.7784091,5.3362069 23.6846591,5.67241379 23.4971591,6.19827586 L24.0681818,6.19827586 L24.0511364,6.19827586 Z" id="Shape" fill="#F9F9FA" fill-rule="nonzero"></path>
                        <path d="M26.8039773,7.06034483 L26.4204545,7.06034483 C26.2998874,6.81567329 26.1541987,6.58451521 25.9857955,6.37068966 C25.7753736,6.10799486 25.6005362,5.81808175 25.4659091,5.50862069 C25.477528,5.71822619 25.477528,5.92832553 25.4659091,6.13793103 C25.4659091,6.40229885 25.4659091,6.72126437 25.4659091,7.09482759 L25.1164773,7.09482759 C25.1164773,6.76724138 25.1164773,6.40517241 25.1164773,6.00862069 C25.1164773,5.61206897 25.1164773,5.2816092 25.1164773,5.01724138 L25.5681818,5.01724138 C25.6693525,5.257694 25.8011498,5.48374522 25.9602273,5.68965517 C26.1542261,5.95576229 26.3145613,6.24536595 26.4375,6.55172414 C26.4263802,6.33922919 26.4263802,6.12628805 26.4375,5.9137931 C26.4375,5.62643678 26.4375,5.33908046 26.4375,5.05172414 L26.8295455,5.05172414 C26.8295455,5.31609195 26.8295455,5.64655172 26.8295455,6.04310345 C26.8295455,6.43965517 26.8210227,6.77873563 26.8039773,7.06034483 Z" id="Path" fill="#F9F9FA"></path>
                        <path d="M29.0880682,5.94827586 C29.0923664,6.23989797 28.9890509,6.52267083 28.7982955,6.74137931 C28.5952066,6.97015559 28.3007143,7.09374297 27.9971591,7.07758621 L27.3579545,7.07758621 C27.3579545,6.75574713 27.3579545,6.39367816 27.3579545,5.99137931 C27.3579545,5.58908046 27.3579545,5.25862069 27.3579545,5 L28.0142045,5 C28.3258505,4.96325602 28.6376629,5.06733685 28.8664773,5.28448276 C29.0177512,5.47109255 29.0965386,5.7071064 29.0880682,5.94827586 Z M28.6619318,6.03448276 C28.6672567,5.84566203 28.6035292,5.66149078 28.4829545,5.51724138 C28.3442058,5.36956173 28.146745,5.29347396 27.9460227,5.31034483 L27.7585227,5.31034483 C27.7585227,5.52298851 27.7585227,5.74425287 27.7585227,5.97413793 C27.7585227,6.20402299 27.7585227,6.45689655 27.7585227,6.73275862 L27.9630682,6.73275862 C28.155258,6.74729043 28.34255,6.66701721 28.4659091,6.51724138 C28.5789934,6.38067343 28.6474733,6.21202335 28.6619318,6.03448276 Z" id="Shape" fill="#F9F9FA" fill-rule="nonzero"></path>
                        <path d="M31.1931818,7.06034483 L30.7244318,7.06034483 C30.6587697,6.81699795 30.5643381,6.58254723 30.4431818,6.36206897 C30.3654212,6.26922715 30.2475658,6.22089872 30.1278409,6.23275862 L29.9573864,6.23275862 C29.9573864,6.50862069 29.9573864,6.79597701 29.9573864,7.09482759 L29.53125,7.09482759 C29.53125,6.77298851 29.53125,6.41091954 29.53125,6.00862069 C29.53125,5.60632184 29.53125,5.27586207 29.53125,5.01724138 L30.28125,5.01724138 C30.7642045,5.01724138 31.0056818,5.18390805 31.0056818,5.51724138 C31.0106058,5.77430262 30.8419441,6.00176974 30.5965909,6.06896552 L30.5965909,6.03448276 C30.7191227,6.07728966 30.8201263,6.16707059 30.8778409,6.28448276 C31.0021783,6.53467551 31.1075937,6.7940387 31.1931818,7.06034483 Z M30.6051136,5.59482759 C30.6053263,5.49416669 30.5597742,5.39899568 30.4815797,5.33673077 C30.4033852,5.27446586 30.3012312,5.25202105 30.2045455,5.27586207 L29.9403409,5.27586207 C29.9403409,5.44252874 29.9403409,5.65804598 29.9403409,5.92241379 L30.0852273,5.92241379 C30.4318182,5.93390805 30.6051136,5.82471264 30.6051136,5.59482759 Z" id="Shape" fill="#F9F9FA" fill-rule="nonzero"></path>
                        <path d="M33.4517045,5.98275862 C33.4606415,6.28190003 33.3535882,6.5727194 33.1534091,6.79310345 C32.9661735,7.00161289 32.6988737,7.11793582 32.4204545,7.11206897 C32.156938,7.11908795 31.9028811,7.01253648 31.7215909,6.81896552 C31.5271086,6.60701354 31.4283395,6.32291047 31.4488636,6.03448276 C31.4399266,5.73534135 31.54698,5.44452198 31.7471591,5.22413793 C31.9343947,5.01562849 32.2016945,4.89930556 32.4801136,4.90517241 C32.7436302,4.89815343 32.997687,5.00470489 33.1789773,5.19827586 C33.3734596,5.41022784 33.4722287,5.69433091 33.4517045,5.98275862 Z M33.0170455,6.03448276 C33.0227302,5.83913872 32.9626271,5.64763762 32.8465909,5.49137931 C32.7473368,5.35977599 32.5926159,5.28312326 32.4289773,5.28448276 C32.2726873,5.28436 32.1262404,5.36164533 32.0369318,5.49137931 C31.9275577,5.64404016 31.870676,5.82875929 31.875,6.01724138 C31.8693152,6.21258542 31.9294184,6.40408652 32.0454545,6.56034483 C32.1447086,6.69194815 32.2994295,6.76860088 32.4630682,6.76724138 C32.6193582,6.76736414 32.7658051,6.69007881 32.8551136,6.56034483 C32.9644878,6.40768397 33.0213694,6.22296485 33.0170455,6.03448276 Z" id="Shape" fill="#F9F9FA" fill-rule="nonzero"></path>
                        <path d="M34.3380682,7.06034483 L33.8948864,7.06034483 C33.8948864,6.73275862 33.8948864,6.37068966 33.8948864,5.97413793 C33.8948864,5.57758621 33.8948864,5.24712644 33.8948864,4.98275862 L34.3380682,4.98275862 C34.3380682,5.25287356 34.3380682,5.58333333 34.3380682,5.97413793 C34.3380682,6.36494253 34.3380682,6.72701149 34.3380682,7.06034483 Z" id="Path" fill="#F9F9FA"></path>
                        <path d="M36.6477273,5.94827586 C36.6520255,6.23989797 36.54871,6.52267083 36.3579545,6.74137931 C36.1548657,6.97015559 35.8603734,7.09374297 35.5568182,7.07758621 L34.9176136,7.07758621 C34.9176136,6.75574713 34.9176136,6.39367816 34.9176136,5.99137931 C34.9176136,5.58908046 34.9176136,5.25862069 34.9176136,5 L35.5738636,5 C35.8855096,4.96325602 36.197322,5.06733685 36.4261364,5.28448276 C36.5774103,5.47109255 36.6561977,5.7071064 36.6477273,5.94827586 Z M36.1960227,6.03448276 C36.2013476,5.84566203 36.1376201,5.66149078 36.0170455,5.51724138 C35.8782967,5.36956173 35.680836,5.29347396 35.4801136,5.31034483 L35.2926136,5.31034483 C35.2926136,5.52298851 35.2926136,5.74425287 35.2926136,5.97413793 C35.2926136,6.20402299 35.2926136,6.45689655 35.2926136,6.73275862 L35.4971591,6.73275862 C35.6893489,6.74729043 35.8766409,6.66701721 36,6.51724138 C36.1130844,6.38067343 36.1815642,6.21202335 36.1960227,6.03448276 Z" id="Shape" fill="#F9F9FA" fill-rule="nonzero"></path>
                        <path d="M39.65625,7.06034483 L39.1534091,7.06034483 C39.123064,6.85803157 39.0745683,6.65893362 39.0085227,6.46551724 L38.2755682,6.46551724 C38.2078345,6.6584255 38.1592987,6.85768831 38.1306818,7.06034483 L37.6534091,7.06034483 C37.6534091,7.06034483 37.7727273,6.68103448 38.0198864,6.04310345 C38.1548966,5.69789348 38.2659611,5.3435871 38.3522727,4.98275862 L38.9488636,4.98275862 C39.0516804,5.34102468 39.1769335,5.69230929 39.3238636,6.03448276 C39.454568,6.36950547 39.5655575,6.71205825 39.65625,7.06034483 Z M38.9318182,6.19827586 C38.8266856,5.91572348 38.7356617,5.62800409 38.6590909,5.3362069 C38.6590909,5.3362069 38.5653409,5.67241379 38.3778409,6.19827586 L38.9488636,6.19827586 L38.9318182,6.19827586 Z" id="Shape" fill="#F9F9FA" fill-rule="nonzero"></path>
                        <path d="M41.4886364,5.52586207 C41.5021998,5.75039487 41.3945965,5.96477689 41.2073864,6.0862069 C41.0021169,6.21176746 40.7653416,6.2746354 40.5255682,6.26724138 L40.4232955,6.26724138 C40.4232955,6.4683908 40.4232955,6.73275862 40.4232955,7.06034483 L39.9971591,7.06034483 C39.9971591,6.75574713 39.9971591,6.39367816 39.9971591,5.97413793 C39.9971591,5.5545977 39.9971591,5.22413793 39.9971591,4.98275862 L40.78125,4.98275862 C40.958618,4.97778961 41.1335057,5.02576192 41.2840909,5.12068966 C41.4173172,5.21055566 41.4947853,5.36400769 41.4886364,5.52586207 Z M41.0795455,5.61206897 C41.0795455,5.38218391 40.9318182,5.26724138 40.6363636,5.26724138 L40.3977273,5.26724138 C40.3977273,5.4683908 40.3977273,5.6954023 40.3977273,5.94827586 L40.4914773,5.94827586 C40.8892045,5.97126437 41.0880682,5.8591954 41.0880682,5.61206897 L41.0795455,5.61206897 Z" id="Shape" fill="#F9F9FA" fill-rule="nonzero"></path>
                        <path d="M43.3806818,5.52586207 C43.3942452,5.75039487 43.2866419,5.96477689 43.0994318,6.0862069 C42.8941624,6.21176746 42.6573871,6.2746354 42.4176136,6.26724138 L42.3068182,6.26724138 C42.3068182,6.4683908 42.3068182,6.73275862 42.3068182,7.06034483 L41.8806818,7.06034483 C41.8806818,6.75574713 41.8806818,6.39367816 41.8806818,5.97413793 C41.8806818,5.5545977 41.8806818,5.22413793 41.8806818,4.98275862 L42.6647727,4.98275862 C42.8421407,4.97778961 43.0170284,5.02576192 43.1676136,5.12068966 C43.3040906,5.20849278 43.3849821,5.36231674 43.3806818,5.52586207 Z M42.9715909,5.61206897 C42.9715909,5.38218391 42.8238636,5.26724138 42.5284091,5.26724138 L42.2897727,5.26724138 C42.2897727,5.4683908 42.2897727,5.6954023 42.2897727,5.94827586 L42.3835227,5.94827586 C42.7755682,5.97126437 42.9715909,5.8591954 42.9715909,5.61206897 Z" id="Shape" fill="#F9F9FA" fill-rule="nonzero"></path>
                        <path d="M46.4659091,5.98275862 C46.4748461,6.28190003 46.3677928,6.5727194 46.1676136,6.79310345 C45.9803781,7.00161289 45.7130782,7.11793582 45.4346591,7.11206897 C45.1711426,7.11908795 44.9170857,7.01253648 44.7357955,6.81896552 C44.5413131,6.60701354 44.442544,6.32291047 44.4630682,6.03448276 C44.4541312,5.73534135 44.5611845,5.44452198 44.7613636,5.22413793 C44.9485992,5.01562849 45.215899,4.89930556 45.4943182,4.90517241 C45.7578347,4.89815343 46.0118916,5.00470489 46.1931818,5.19827586 C46.3876642,5.41022784 46.4864333,5.69433091 46.4659091,5.98275862 Z M46.0227273,6.03448276 C46.0284121,5.83913872 45.9683089,5.64763762 45.8522727,5.49137931 C45.7530187,5.35977599 45.5982977,5.28312326 45.4346591,5.28448276 C45.2783691,5.28436 45.1319222,5.36164533 45.0426136,5.49137931 C44.9332395,5.64404016 44.8763578,5.82875929 44.8806818,6.01724138 C44.874997,6.21258542 44.9351002,6.40408652 45.0511364,6.56034483 C45.1503904,6.69194815 45.3051113,6.76860088 45.46875,6.76724138 C45.62504,6.76736414 45.7714869,6.69007881 45.8607955,6.56034483 C45.9701696,6.40768397 46.0270513,6.22296485 46.0227273,6.03448276 Z" id="Shape" fill="#F9F9FA" fill-rule="nonzero"></path>
                        <path d="M48.5795455,7.06034483 L48.2130682,7.06034483 C48.0925561,6.81564174 47.9468638,6.58447798 47.7784091,6.37068966 C47.5679872,6.10799486 47.3931498,5.81808175 47.2585227,5.50862069 C47.2701417,5.71822619 47.2701417,5.92832553 47.2585227,6.13793103 C47.2585227,6.40229885 47.2585227,6.72126437 47.2585227,7.09482759 L46.875,7.09482759 C46.875,6.76724138 46.875,6.40517241 46.875,6.00862069 C46.875,5.61206897 46.875,5.2816092 46.875,5.01724138 L47.34375,5.01724138 C47.4449207,5.257694 47.576718,5.48374522 47.7357955,5.68965517 C47.9297943,5.95576229 48.0901294,6.24536595 48.2130682,6.55172414 C48.2019484,6.33922919 48.2019484,6.12628805 48.2130682,5.9137931 C48.2130682,5.62643678 48.2130682,5.33908046 48.2130682,5.05172414 L48.5795455,5.05172414 C48.5795455,5.31609195 48.5795455,5.64655172 48.5795455,6.04310345 C48.5795455,6.43965517 48.5795455,6.77873563 48.5795455,7.06034483 Z" id="Path" fill="#F9F9FA"></path>
                    </g>
                </g>
            </g>
        </g>
    </g>
</svg>