<?xml version="1.0" encoding="UTF-8"?>
<svg width="28px" height="31px" viewBox="0 0 28 31" version="1.1" xmlns="http://www.w3.org/2000/svg" xmlns:xlink="http://www.w3.org/1999/xlink">
    <!-- Generator: Sketch 52.4 (67378) - http://www.bohemiancoding.com/sketch -->
    <title>icon-shieldCheck-01</title>
    <desc>Created with Sketch.</desc>
    <g id="Page-1" stroke="none" stroke-width="1" fill="none" fill-rule="evenodd">
        <g id="AthenaKYC-Proto1-Login" transform="translate(-608.000000, -434.000000)" fill="#FFFFFF" fill-rule="nonzero">
            <g id="Group-4" transform="translate(472.000000, 432.000000)">
                <g id="icon-shieldCheck-01" transform="translate(136.000000, 2.000000)">
                    <path d="M14,9.5945 C10.7267924,9.5945 8.07333333,12.2384824 8.07333333,15.5 C8.07333333,18.7615176 10.7267924,21.4055 14,21.4055 C17.2732076,21.4055 19.9266667,18.7615176 19.9266667,15.5 C19.9223819,12.2402525 17.2714312,9.59876948 14,9.5945 Z M17.5155556,14.39175 L13.2688889,18.6 C13.0980639,18.7713252 12.8657056,18.8676686 12.6233333,18.8676686 C12.3809611,18.8676686 12.1486028,18.7713252 11.9777778,18.6 L10.3522222,16.98025 C10.0021351,16.6185725 10.0125817,16.0425869 10.3755556,15.69375 C10.7385294,15.3449131 11.3165795,15.3553225 11.6666667,15.717 L12.6466667,16.6935 L16.2477778,13.10525 C16.6043083,12.7499928 17.1823584,12.7499928 17.5388889,13.10525 C17.8954194,13.4605072 17.8954194,14.0364928 17.5388889,14.39175 L17.5155556,14.39175 Z" id="Shape"></path>
                    <path d="M27.2222222,8.40875 C27.2222222,8.11425 27.2222222,7.7965 27.2222222,7.44775 C27.1883713,5.73014784 25.8324565,4.32841035 24.1111111,4.2315 C20.8338684,4.16460653 17.7073945,2.84691173 15.3766667,0.55025 C14.6131467,-0.154726551 13.43352,-0.154726551 12.67,0.55025 C10.3239521,2.84938127 7.17910276,4.15944996 3.88888889,4.20825 C2.16754349,4.30516035 0.811628656,5.70689784 0.777777778,7.4245 C0.777777778,7.77325 0.777777778,8.091 0.777777778,8.3855 L0.777777778,8.43975 C0.707777778,12.0745 0.622222222,16.6005 2.13888889,20.70025 C2.93621734,22.9015236 4.22010889,24.8959699 5.89555556,26.536 C7.99970724,28.5001569 10.5116298,29.9791736 13.2533333,30.86825 L13.5566667,30.9535 C13.8467141,31.0117428 14.1455081,31.0117428 14.4355556,30.9535 L14.7777778,30.876 C17.5171945,29.9831529 20.0263271,28.5015699 22.1277778,26.536 C23.802603,24.8954669 25.086398,22.9011705 25.8844444,20.70025 C27.44,16.585 27.3233333,12.05125 27.2533333,8.40875 L27.2222222,8.40875 Z M14,23.25 C9.70445195,23.25 6.22222222,19.7802068 6.22222222,15.5 C6.22222222,11.2197932 9.70445195,7.75 14,7.75 C18.2955481,7.75 21.7777778,11.2197932 21.7777778,15.5 C21.7777778,17.5554278 20.9583357,19.5266706 19.4997194,20.9800776 C18.0411031,22.4334845 16.0627949,23.25 14,23.25 Z" id="Shape"></path>
                </g>
            </g>
        </g>
    </g>
</svg>