<?xml version="1.0" encoding="UTF-8"?>
<svg width="33px" height="26px" viewBox="0 0 33 26" version="1.1" xmlns="http://www.w3.org/2000/svg" xmlns:xlink="http://www.w3.org/1999/xlink">
    <!-- Generator: Sketch 52.4 (67378) - http://www.bohemiancoding.com/sketch -->
    <title>icon-identi-01</title>
    <desc>Created with Sketch.</desc>
    <g id="Page-1" stroke="none" stroke-width="1" fill="none" fill-rule="evenodd">
        <g id="AthenaKYC-Proto1-Login" transform="translate(-472.000000, -436.000000)" fill="#FFFFFF">
            <g id="Group-4" transform="translate(472.000000, 432.000000)">
                <g id="icon-identi-01" transform="translate(0.000000, 4.000000)">
                    <path d="M12.77925,5.516875 L20.20425,5.516875 C20.9560476,5.516875 21.5655,4.91665674 21.5655,4.17625 L21.5655,3.25 C21.5655,2.50959326 20.9560476,1.909375 20.20425,1.909375 L19.8,1.909375 L19.8,1.365 C19.8,0.799598487 19.3346,0.34125 18.7605,0.34125 L14.223,0.34125 C13.6553539,0.35012485 13.1999285,0.805884189 13.2,1.365 L13.2,1.93375 L12.77925,1.93375 C12.0370127,1.93362917 11.4314952,2.51912959 11.418,3.25 L11.418,4.17625 C11.4157877,4.53246932 11.5584942,4.8747299 11.8142592,5.12661971 C12.0700243,5.37850952 12.4175504,5.51905377 12.77925,5.516875 Z" id="Path"></path>
                    <path d="M29.205,3.843125 L22.84425,3.843125 L22.84425,4.17625 C22.839721,5.59687675 21.6714825,6.7474146 20.229,6.751875 L12.804,6.751875 C11.3615175,6.7474146 10.193279,5.59687675 10.18875,4.17625 L10.18875,3.843125 L3.795,3.843125 C2.78783161,3.84096162 1.82128168,4.23403805 1.10910439,4.93542478 C0.396927099,5.6368115 -0.00219666736,6.58871674 5.49561752e-16,7.580625 L5.49561752e-16,21.9375 C-0.00219666736,22.9294083 0.396927099,23.8813135 1.10910439,24.5827002 C1.82128168,25.2840869 2.78783161,25.6771634 3.795,25.675 L29.205,25.675 C30.2121684,25.6771634 31.1787183,25.2840869 31.8908956,24.5827002 C32.6030729,23.8813135 33.0021967,22.9294083 33,21.9375 L33,7.580625 C33,6.58937837 32.6001708,5.63873062 31.8884702,4.93781341 C31.1767697,4.23689619 30.2114966,3.843125 29.205,3.843125 Z M9.49575,21.214375 C5.85067065,21.214375 2.89575,18.3042259 2.89575,14.714375 C2.89575,11.1245241 5.85067065,8.214375 9.49575,8.214375 C13.1408293,8.214375 16.09575,11.1245241 16.09575,14.714375 C16.09575,18.3042259 13.1408293,21.214375 9.49575,21.214375 Z M29.29575,18.37875 L18.216,18.37875 L18.216,16.989375 L29.2875,16.989375 L29.2875,18.37875 L29.29575,18.37875 Z M29.29575,15.445625 L18.216,15.445625 L18.216,14.05625 L29.2875,14.05625 L29.2875,15.4375 L29.29575,15.445625 Z M29.29575,12.5125 L18.216,12.5125 L18.216,11.123125 L29.2875,11.123125 L29.2875,12.5125 L29.29575,12.5125 Z" id="Shape" fill-rule="nonzero"></path>
                    <path d="M9.5205,9.53875 C7.48041569,9.53798295 5.62122818,10.6912253 4.74071097,12.5036233 C3.86019376,14.3160212 4.11488608,16.4653647 5.3955,18.029375 C5.39493217,17.557289 5.70559339,17.1394805 6.16275,16.9975 C6.83279077,16.8285522 7.47074644,16.5541899 8.052,16.185 L8.877,18.6225 L8.98425,18.955625 L9.339,17.980625 C8.45625,16.778125 9.57,16.81875 9.57,16.81875 C9.57,16.81875 10.6755,16.77 9.801,17.980625 L10.1475,18.955625 L10.25475,18.630625 L10.3785,18.240625 L11.03025,16.193125 C11.6115719,16.5621894 12.2495062,16.8365426 12.9195,17.005625 C13.3766566,17.1476055 13.6873178,17.565414 13.68675,18.0375 C14.9603115,16.4717397 15.2109912,14.3260489 14.3317831,12.5163455 C13.452575,10.7066421 11.5987931,9.55261432 9.56175,9.546875 L9.5205,9.53875 Z M11.616,14.145625 C11.6117808,14.4016307 11.4748099,14.6376979 11.253,14.77125 C11.1261348,15.4726054 10.6436332,16.061229 9.97425,16.33125 C9.67009416,16.4378576 9.33790584,16.4378576 9.03375,16.33125 C8.3604672,16.0664088 7.87590166,15.4752673 7.755,14.77125 C7.54344815,14.632146 7.41892423,14.3960694 7.425,14.145625 C7.23525,13.4875 7.425,13.39 7.6065,13.40625 C7.57529855,13.3159669 7.55048909,13.2236623 7.53225,13.13 C7.46854257,12.8436044 7.46854257,12.5470206 7.53225,12.260625 C7.60893368,11.930456 7.77091611,11.6253934 8.0025,11.375 C8.14302947,11.2271336 8.30088375,11.0962178 8.47275,10.985 C8.61550621,10.8867056 8.77085827,10.8074744 8.93475,10.749375 C9.07011206,10.7018183 9.21192553,10.674433 9.3555,10.668125 C9.72229565,10.6274959 10.0926175,10.7044271 10.4115,10.8875 C10.6229582,10.9949912 10.8000158,11.1581161 10.923,11.35875 C10.923,11.35875 11.748,11.415625 11.49225,13.13 C11.4763196,13.2241661 11.4514608,13.316654 11.418,13.40625 C11.5995,13.40625 11.80575,13.4875 11.616,14.145625 Z" id="Shape" fill-rule="nonzero"></path>
                </g>
            </g>
        </g>
    </g>
</svg>