<?xml version="1.0" encoding="UTF-8"?>
<svg width="31px" height="34px" viewBox="0 0 31 34" version="1.1" xmlns="http://www.w3.org/2000/svg" xmlns:xlink="http://www.w3.org/1999/xlink">
    <!-- Generator: Sketch 52.4 (67378) - http://www.bohemiancoding.com/sketch -->
    <title>icon-passport-01</title>
    <desc>Created with Sketch.</desc>
    <g id="Page-1" stroke="none" stroke-width="1" fill="none" fill-rule="evenodd">
        <g id="AthenaKYC-Proto1-Login" transform="translate(-541.000000, -432.000000)" fill="#FFFFFF">
            <g id="Group-4" transform="translate(472.000000, 432.000000)">
                <g id="icon-passport-01" transform="translate(69.000000, 0.000000)">
                    <path d="M4.43789474,19.177619 C5.12682604,20.523317 6.34166078,21.5298545 7.79894737,21.962381 C7.35605782,21.0809352 7.03500554,20.1442366 6.84447368,19.177619 L4.39710526,19.177619 L4.43789474,19.177619 Z" id="Path"></path>
                    <path d="M9.21842105,22.1971429 L9.38157895,22.1971429 L9.54473684,22.1971429 C10.1326909,21.2711595 10.5498134,20.2486978 10.7765789,19.177619 L7.98657895,19.177619 C8.21384378,20.2485467 8.63093161,21.2709234 9.21842105,22.1971429 Z" id="Path"></path>
                    <path d="M12.1634211,16.692381 C12.1612819,17.1549279 12.1340495,17.6170252 12.0818421,18.0766667 L14.7494737,18.0766667 C15.0125788,17.1750278 15.0125788,16.2178293 14.7494737,15.3161905 L12.0818421,15.3161905 C12.1334663,15.7731726 12.1606973,16.2325444 12.1634211,16.692381 Z" id="Path"></path>
                    <path d="M10.9560526,11.4304762 C11.4015714,12.3108315 11.7227484,13.2478942 11.9105263,14.2152381 L14.3171053,14.2152381 C13.628174,12.8695401 12.4133392,11.8630026 10.9560526,11.4304762 Z" id="Path"></path>
                    <path d="M9.54473684,11.187619 L9.38157895,11.187619 L9.21842105,11.187619 C8.62937326,12.113046 8.21216868,13.1357088 7.98657895,14.2071429 L10.7765789,14.2071429 C10.5508203,13.1357598 10.1336276,12.1131259 9.54473684,11.187619 Z" id="Path"></path>
                    <path d="M7.70921053,16.692381 C7.71148231,17.1551654 7.74144733,17.6174076 7.79894737,18.0766667 L10.9642105,18.0766667 C11.0215774,17.6173952 11.0515419,17.1551608 11.0539474,16.692381 C11.0512411,16.2296115 11.0212777,15.7673946 10.9642105,15.3080952 L7.79894737,15.3080952 C7.74169368,15.7673773 7.71172959,16.229605 7.70921053,16.692381 Z" id="Path"></path>
                    <path d="M7.79894737,11.4304762 C6.34166078,11.8630026 5.12682604,12.8695401 4.43789474,14.2152381 L6.88526316,14.2152381 C7.06048555,13.2499965 7.36789442,12.3130639 7.79894737,11.4304762 Z" id="Path"></path>
                    <path d="M6.59973684,16.692381 C6.60214132,16.2298423 6.62937288,15.7677591 6.68131579,15.3080952 L4.01368421,15.3080952 C3.75057908,16.2097341 3.75057908,17.1669326 4.01368421,18.0685714 L6.68131579,18.0685714 C6.62922771,17.6116287 6.60199523,17.1522323 6.59973684,16.692381 Z" id="Path"></path>
                    <path d="M10.9560526,21.962381 C12.4133392,21.5298545 13.628174,20.523317 14.3171053,19.177619 L11.8697368,19.177619 C11.6926547,20.1423954 11.3853263,21.0790828 10.9560526,21.962381 Z" id="Path"></path>
                    <path d="M28.8707895,4.3147619 L15.9731579,0.882380952 C14.7910469,0.567180973 13.5741503,1.25772618 13.2484211,2.42857143 L12.0818421,6.75952381 L17.1315789,6.75952381 C17.7933678,6.76252935 18.4189952,7.05957345 18.8365789,7.56904762 L20.8107895,8.0952381 L24.4736842,4.68714286 L25.5015789,4.96238095 L23.2092105,8.71047619 L25.0202632,9.19619048 L26.4152632,8.38666667 L27.1005263,8.5647619 L26.0236842,10.1838095 L26.1052632,12.1428571 L25.42,11.9647619 L24.6042105,10.572381 L22.8421053,10.062381 L22.94,14.45 L21.9121053,14.1747619 L20.4436842,9.42285714 L19.3913158,9.13952381 L19.3913158,22.4319048 L20.5415789,18.1090476 L21.6184211,18.392381 L19.3913158,26.7790476 L19.3913158,28.8433333 C19.3913798,29.4351155 19.1522649,30.0022011 18.7275173,30.4176001 C18.3027697,30.832999 17.7278775,31.0620041 17.1315789,31.0533333 L13.33,31.0533333 L21.0963158,33.117619 C22.2784268,33.432819 23.4953234,32.7422738 23.8210526,31.5714286 L27.4268421,18.2142857 L26.35,17.9390476 L26.6355263,16.8704762 L27.7368421,17.1457143 L30.4452632,7.01857143 C30.7617807,5.84064229 30.0572968,4.63084731 28.8707895,4.3147619 Z M20.9739474,16.5061905 L19.8971053,16.1904762 L20.1826316,15.1219048 L21.2594737,15.4052381 L20.9739474,16.5061905 Z M22.3363158,15.6966667 L23.4131579,15.98 L23.1276316,17.0485714 L22.0263158,16.7895238 L22.3363158,15.6966667 Z M21.6755263,30.9804762 L20.5986842,30.6971429 L23.7639474,18.9671429 L24.8407895,19.2504762 L21.6755263,30.9804762 Z M25.2894737,17.647619 L24.2126316,17.3642857 L24.4736842,16.2957143 L25.5505263,16.5790476 L25.2894737,17.647619 Z" id="Shape" fill-rule="nonzero"></path>
                    <path d="M18.2818421,28.8433333 L18.2818421,8.96142857 C18.2797753,8.66300036 18.1565926,8.37799238 17.9401303,8.17080966 C17.7236681,7.96362694 17.4321957,7.8517557 17.1315789,7.86047619 L0.473157895,7.86047619 L0.473157895,29.952381 L17.1315789,29.952381 C17.4336059,29.9611353 17.7263357,29.8481658 17.9430439,29.6392226 C18.159752,29.4302794 18.2819709,29.1431683 18.2818421,28.8433333 Z M14.9452632,27.742381 L3.81789474,27.742381 L3.81789474,26.6333333 L14.9452632,26.6333333 L14.9452632,27.7342857 L14.9452632,27.742381 Z M9.38157895,23.322381 C5.69609561,23.322381 2.70842105,20.3576532 2.70842105,16.7004762 C2.70842105,13.0432992 5.69609561,10.0785714 9.38157895,10.0785714 C13.0670623,10.0785714 16.0547368,13.0432992 16.0547368,16.7004762 C16.0547368,20.3576532 13.0670623,23.322381 9.38157895,23.322381 Z" id="Shape" fill-rule="nonzero"></path>
                </g>
            </g>
        </g>
    </g>
</svg>