<?xml version="1.0" encoding="UTF-8"?>
<svg width="46px" height="41px" viewBox="0 0 46 41" version="1.1" xmlns="http://www.w3.org/2000/svg" xmlns:xlink="http://www.w3.org/1999/xlink">
    <!-- Generator: Sketch 52.4 (67378) - http://www.bohemiancoding.com/sketch -->
    <title>icon-pie</title>
    <desc>Created with Sketch.</desc>
    <g id="Page-1" stroke="none" stroke-width="1" fill="none" fill-rule="evenodd">
        <g id="AthenaKYC-Proto1" transform="translate(-791.000000, -1127.000000)" fill="#DB8655" fill-rule="nonzero">
            <g id="Benefits" transform="translate(171.000000, 999.000000)">
                <g id="Group-24" transform="translate(0.000000, 95.000000)">
                    <g id="03" transform="translate(512.000000, 0.000000)">
                        <g id="icon-pie" transform="translate(108.000000, 33.000000)">
                            <path d="M39.5692929,0.105955056 L6.43070707,0.105955056 C3.32686869,0.105955056 0,1.78280899 0,6.48168539 L0,28.5019101 C0,33.2007865 3.32686869,34.8776404 6.43070707,34.8776404 L18.6973737,34.8776404 L18.6973737,38.931573 L16.6529293,38.931573 C16.1063889,38.931573 15.6632323,39.370941 15.6632323,39.912809 C15.6632323,40.454677 16.1063889,40.8940449 16.6529293,40.8940449 L29.7187879,40.8940449 C30.2653283,40.8940449 30.7084848,40.454677 30.7084848,39.912809 C30.7084848,39.3708258 30.2653283,38.931573 29.7187879,38.931573 L27.3026263,38.931573 L27.3026263,34.8776404 L39.5692929,34.8776404 C44.3086869,34.8776404 46,31.5792135 46,28.5019101 L46,6.48168539 C46,1.78280899 42.6731313,0.105955056 39.5692929,0.105955056 Z M25.3232323,38.931573 L20.6767677,38.931573 L20.6767677,34.8776404 L25.3232323,34.8776404 L25.3232323,38.931573 Z M44.0206061,28.5019101 C44.0206061,29.8286517 43.5838384,32.9151685 39.5692929,32.9151685 L6.43070707,32.9151685 C5.09252525,32.9151685 1.97939394,32.4821348 1.97939394,28.5019101 L1.97939394,27.1106742 L44.0206061,27.1106742 L44.0206061,28.5019101 Z M44.0206061,25.1482022 L1.97939394,25.1482022 L1.97939394,6.48168539 C1.97939394,2.50146067 5.09252525,2.06842697 6.43070707,2.06842697 L39.5692929,2.06842697 C40.9074747,2.06842697 44.0206061,2.50146067 44.0206061,6.48168539 L44.0206061,25.1482022 Z" id="Shape"></path>
                            <path d="M30.1963283,8.53456461 C30.1951667,8.5320309 30.1938889,8.52949719 30.1927273,8.52707865 C28.1266768,4.61399719 23.2521869,3.10241011 19.3054798,5.15091292 C16.6540909,6.5270618 14.9890303,9.24538483 14.980202,12.2124719 C14.980202,12.7518062 15.4212677,13.1891011 15.9652525,13.1891011 L23,13.1891011 C23.1585606,13.1891011 23.314798,13.1512107 23.4553535,13.0785393 L29.7280808,9.83539326 C30.2196768,9.60436517 30.4293485,9.02207303 30.1963283,8.53456461 Z M22.7583838,11.2174157 L16.9967677,11.2174157 C17.4867374,8.30733708 20.0241717,6.17314888 23,6.16842697 C24.9165505,6.16554775 26.7219343,7.0604073 27.8694949,8.58235955 L22.7583838,11.2174157 Z" id="Shape"></path>
                            <path d="M31.0941414,11.7610112 C30.8467172,11.2806433 30.2533636,11.0900393 29.7688535,11.3353483 C29.7676919,11.3359242 29.7664141,11.3366152 29.7652525,11.337191 L23.7062626,14.4697753 L16.8759596,14.4697753 C16.3319747,14.4697753 15.8909091,14.9070702 15.8909091,15.4464045 C15.888702,19.8632331 19.4983081,23.4454354 23.9532222,23.4476236 C28.4081364,23.4498118 32.0212273,19.8710646 32.0234343,15.454236 C32.0234343,15.4515871 32.0234343,15.4489382 32.0234343,15.4462893 C32.0207626,14.1612388 31.7017828,12.8962275 31.0941414,11.7610112 Z M23.966697,21.4811208 C23.9542677,21.481236 23.9418384,21.481236 23.9292929,21.481236 C20.9505606,21.475823 18.4119646,19.3367978 17.9260606,16.4230337 L23.9292929,16.4230337 C24.0878535,16.4230337 24.2440909,16.3851433 24.3846465,16.3124719 L29.7094949,13.548427 C29.908596,14.142927 30.012096,14.7647219 30.0161616,15.3911236 C30.0418333,18.7290534 27.3334091,21.4556685 23.966697,21.4811208 Z" id="Shape"></path>
                        </g>
                    </g>
                </g>
            </g>
        </g>
    </g>
</svg>