<?xml version="1.0" encoding="UTF-8"?>
<svg width="24px" height="24px" viewBox="0 0 24 24" version="1.1" xmlns="http://www.w3.org/2000/svg" xmlns:xlink="http://www.w3.org/1999/xlink">
    <!-- Generator: Sketch 52.4 (67378) - http://www.bohemiancoding.com/sketch -->
    <title>Icon-InProgress</title>
    <desc>Created with Sketch.</desc>
    <g id="Page-1" stroke="none" stroke-width="1" fill="none" fill-rule="evenodd">
        <g id="AthenaKYC-Proto1" transform="translate(-671.000000, -2456.000000)">
            <g id="Roadmap-Section" transform="translate(171.000000, 2166.000000)">
                <g id="Icon-InProgress" transform="translate(500.000000, 290.000000)">
                    <rect id="Icon-RoadmapBox1" stroke="#DB8655" fill="#FFFFFF" fill-rule="nonzero" x="0.5" y="0.5" width="23" height="23"></rect>
                    <g id="recycling" transform="translate(12.500000, 11.500000) scale(-1, -1) translate(-12.500000, -11.500000) translate(8.000000, 6.000000)" fill="#DC6132">
                        <path d="M9,5.35896324 C8.99825615,3.40043749 7.75872907,1.65492519 5.90466998,1 L5.66680913,1.67020244 C7.3546795,2.263845 8.4255765,3.91864865 8.27089721,5.69402105 C8.1161307,7.46939342 6.77493727,8.91587097 5.00972724,9.21126002 L5.73787094,7.95444602 L5.11932808,7.59890281 L4.04790793,9.44771015 C3.94929332,9.61775631 4.00779943,9.83519669 4.17860933,9.93337037 L6.03572016,11 L6.39286021,10.3842228 L5.45536758,9.84517899 C7.53316234,9.340075 8.99633793,7.48822957 9,5.35896324 Z" id="Path"></path>
                        <path d="M3.88077708,3.4010972 L4.95209657,1.55228986 C5.05070191,1.38224367 4.99220131,1.16480331 4.82140745,1.06662963 L2.9644711,0 L2.6073646,0.615777241 L3.54476915,1.15482101 C1.54920993,1.63735635 0.109711549,3.36854624 0.00596235791,5.41057602 C-0.0976996764,7.45251901 1.15906062,9.31946807 3.09550896,10 L3.33334747,9.32979758 C1.64572285,8.73624179 0.574839278,7.08135134 0.729504043,5.30597896 C0.88425601,3.53060657 2.22532343,2.08412901 3.9904548,1.78873998 L3.26229234,3.04555398 L3.88077708,3.4010972 Z" id="Path"></path>
                    </g>
                </g>
            </g>
        </g>
    </g>
</svg>