<?xml version="1.0" encoding="UTF-8"?>
<svg width="30px" height="22px" viewBox="0 0 30 22" version="1.1" xmlns="http://www.w3.org/2000/svg" xmlns:xlink="http://www.w3.org/1999/xlink">
    <!-- Generator: Sketch 52.4 (67378) - http://www.bohemiancoding.com/sketch -->
    <title>icon-Mail</title>
    <desc>Created with Sketch.</desc>
    <g id="Page-1" stroke="none" stroke-width="1" fill="none" fill-rule="evenodd">
        <g id="AthenaKYC-Proto1" transform="translate(-769.000000, -3742.000000)" fill="#D0BBA4" fill-rule="nonzero">
            <g id="icon-Mail" transform="translate(769.000000, 3742.000000)">
                <path d="M29.2131572,0.734329368 C28.688654,0.244685244 28.0579602,0 27.3214862,0 L2.67863111,0 C1.94203981,0 1.31134596,0.244685244 0.786784122,0.734329368 C0.262163647,1.22386404 0,1.81245491 0,2.50004726 L0,19.5001169 C0,20.1878187 0.262163647,20.7759171 0.786784122,21.2654517 C1.31128732,21.7554242 1.94198117,22 2.67863111,22 L27.3215448,22 C28.0580188,22 28.688654,21.7554242 29.2132159,21.2654517 C29.7379536,20.7759171 30,20.1874904 30,19.5001169 L30,2.50004726 C29.9999414,1.81245491 29.7379536,1.22386404 29.2131572,0.734329368 Z M27.8571429,19.4022284 C27.8571429,19.5384574 27.8041937,19.6563023 27.6980022,19.7558182 C27.5918694,19.8554443 27.466445,19.9047619 27.3215532,19.9047619 L2.67850546,19.9047619 C2.53343771,19.9047619 2.40783741,19.8554443 2.30188049,19.7558182 C2.19580629,19.6563023 2.14285714,19.5384574 2.14285714,19.4022284 L2.14285714,7.33333333 C2.49995602,7.71048114 2.88502472,8.05625501 3.29800459,8.37048981 C6.28919146,10.5286317 8.66639107,12.2990578 10.429838,13.6820432 C10.9990266,14.132617 11.4622583,14.4835098 11.8193572,14.7349967 C12.1764561,14.9865937 12.6591553,15.2405575 13.2673375,15.4971083 C13.8755783,15.7540444 14.4476402,15.881907 14.9833471,15.881907 L15.0001759,15.881907 L15.0168288,15.881907 C15.5524185,15.881907 16.1247149,15.7540444 16.7327212,15.4971083 C17.3411379,15.2405575 17.8241303,14.9866488 18.1811119,14.7349967 C18.5381521,14.4835098 19.0014425,14.132617 19.5706897,13.6820432 C21.3341367,12.2990578 23.7110431,10.5286317 26.7023472,8.37048981 C27.1153271,8.05631005 27.5005717,7.71048114 27.8571429,7.33333333 L27.8571429,19.4022284 Z M27.8570842,2.96564679 L27.8570842,3.13067808 C27.8570842,3.72084892 27.597848,4.37866156 27.0789065,5.10385322 C26.5599063,5.82904488 25.9988631,6.40686465 25.3965391,6.83689206 C23.2421988,8.35770275 21.0047692,9.9431069 18.682843,11.5936826 C18.6159963,11.6436651 18.420499,11.7911421 18.0967029,12.0361137 C17.773376,12.2814532 17.5165439,12.469242 17.3267344,12.5991122 C17.1366904,12.7293502 16.888654,12.8868658 16.5818628,13.0717639 C16.274837,13.256662 15.993084,13.3944684 15.7364279,13.4843947 C15.4797717,13.5741108 15.2397686,13.6190476 15.016653,13.6190476 L15,13.6190476 L14.983171,13.6190476 C14.7599969,13.6190476 14.5202283,13.5741108 14.2633962,13.4843947 C14.0067401,13.3944684 13.7248111,13.256662 13.4180199,13.0717639 C13.1112874,12.8868132 12.8628991,12.7292977 12.6731483,12.5991122 C12.4835147,12.469242 12.2266827,12.2814532 11.9031211,12.0361137 C11.5794424,11.7911421 11.3839451,11.6436651 11.3170397,11.5936826 C8.99564128,9.94305434 6.75797714,8.35770275 4.60381274,6.83689206 C2.96307795,5.67662744 2.14285714,4.2559918 2.14285714,2.57535303 C2.14285714,2.4454303 2.19580677,2.33279907 2.30188194,2.23787979 C2.4079571,2.14280285 2.53344127,2.0952381 2.67851035,2.0952381 L27.3218415,2.0952381 C27.4109704,2.14017496 27.4891928,2.1526837 27.5562154,2.13281688 C27.623238,2.11258215 27.6733731,2.15021349 27.7066791,2.24518532 C27.7401611,2.34026227 27.7708872,2.38519913 27.7987399,2.38025871 C27.82671,2.37521316 27.843539,2.43770431 27.8491095,2.56794239 C27.8543283,2.69791767 27.8571429,2.76335205 27.8571429,2.76335205 L27.8571429,2.96564679 L27.8570842,2.96564679 Z" id="Shape"></path>
            </g>
        </g>
    </g>
</svg>