<?xml version="1.0" encoding="UTF-8"?>
<svg width="46px" height="33px" viewBox="0 0 46 33" version="1.1" xmlns="http://www.w3.org/2000/svg" xmlns:xlink="http://www.w3.org/1999/xlink">
    <!-- Generator: Sketch 52.4 (67378) - http://www.bohemiancoding.com/sketch -->
    <title>icon-search</title>
    <desc>Created with Sketch.</desc>
    <g id="Page-1" stroke="none" stroke-width="1" fill="none" fill-rule="evenodd">
        <g id="AthenaKYC-Proto1" transform="translate(-265.000000, -1128.000000)" fill="#DB8655">
            <g id="Benefits" transform="translate(171.000000, 999.000000)">
                <g id="Group-24" transform="translate(0.000000, 95.000000)">
                    <g id="01">
                        <g id="icon-search" transform="translate(94.000000, 34.000000)">
                            <path d="M45.1386644,0.00860861426 C45.1017912,0.00839492423 45.0649181,0.0104249796 45.0282619,0.0148056254 L45.0282619,0.00625802384 L26.5830146,2.21153922 L8.13776734,0.00625802384 C7.6621038,-0.0503698364 7.22982043,0.283627694 7.17234171,0.752249949 C7.16789524,0.788363566 7.16583469,0.824690872 7.16605159,0.861018179 L7.16605159,13.3319688 C4.50663041,16.2109079 4.38852791,20.5745653 6.88841851,23.5890907 L0.303309075,30.0596251 C-0.0606505314,30.3666977 -0.103054645,30.906265 0.208631859,31.2648369 C0.520318363,31.6234088 1.06799298,31.6651852 1.43195258,31.3581126 C1.46589757,31.3294781 1.49756509,31.2982794 1.5266298,31.2648369 L7.15737555,25.7174435 L7.15737555,29.931411 C7.15423049,30.3661634 7.48272681,30.7340308 7.9208665,30.7861712 L26.4962543,33 L26.7044791,33 L45.2364867,30.7861712 C45.6746264,30.7340308 46.0031227,30.3661634 45.9999776,29.931411 L45.9999776,0.86956578 C46.0033396,0.397524485 45.6177983,0.0120276549 45.1386644,0.00860861426 Z M8.58653517,14.3171868 C8.60453794,14.2992368 8.62264916,14.2812868 8.64097728,14.2635506 C11.0751469,11.8681921 15.0193802,11.8705427 17.4506217,14.2686791 C19.8818632,16.6668156 19.8795858,20.5526621 17.4454161,22.9479137 C15.013307,25.3412422 11.0729779,25.3412422 8.64086883,22.9479137 C6.20680763,20.5794802 6.18240629,16.7153232 8.58653517,14.3171868 Z M25.7153028,31.1879085 L8.90114984,29.1792221 L8.90114984,25.2900634 C12.6529921,27.5521862 17.5559271,26.3896055 19.8520393,22.6933021 C22.1481516,18.9969986 20.9681026,14.1666421 17.2162604,11.9045194 C14.6645305,10.3659511 11.4528797,10.3659511 8.90114984,11.9045194 L8.90114984,1.81834955 L25.7153028,3.82703592 L25.7153028,31.1879085 Z M44.2646625,29.1792221 L27.4505095,31.1879085 L27.4505095,3.83558352 L44.2646625,1.82689715 L44.2646625,29.1792221 Z" id="Shape" fill-rule="nonzero"></path>
                            <path d="M23.1794436,8.38087682 L10.982119,7.0058793 C10.5009781,6.95229484 10.0640525,7.27097074 10.006333,7.71764272 C9.94861352,8.16431471 10.2918811,8.56993898 10.773022,8.62352344 L10.7991591,8.62352344 L22.9964837,9.99852096 L23.0748951,9.99852096 C23.556036,10.0253132 23.9695471,9.6849002 23.9984068,9.23822821 C24.0272666,8.79145512 23.6605845,8.40766905 23.1794436,8.38087682 Z" id="Path"></path>
                            <path d="M42.993667,7.71764272 C42.9359475,7.27097074 42.4990219,6.95229484 42.017881,7.0058793 L29.8205564,8.38087682 C29.3394155,8.40766905 28.9727334,8.79155622 29.0015932,9.23822821 C29.0304529,9.6849002 29.443964,10.0253132 29.9251049,9.99852096 L30.0296534,9.99852096 L42.226978,8.62352344 C42.7081189,8.56983787 43.0513865,8.16431471 42.993667,7.71764272 Z" id="Path"></path>
                            <path d="M42.993667,14.7176427 C42.9359475,14.2709707 42.4990219,13.9522948 42.017881,14.0058793 L29.8205564,15.3808768 C29.3394155,15.407669 28.9727334,15.7915562 29.0015932,16.2382282 C29.0304529,16.6849002 29.443964,17.0253132 29.9251049,16.998521 L30.0296534,16.998521 L42.226978,15.6235234 C42.7081189,15.569939 43.0513865,15.1643147 42.993667,14.7176427 Z" id="Path"></path>
                            <path d="M42.993667,21.7176427 C42.9359475,21.2709707 42.4990219,20.9522948 42.017881,21.0058793 L29.8205564,22.3808768 C29.3394155,22.407669 28.9727334,22.7915562 29.0015932,23.2382282 C29.0304529,23.6849002 29.443964,24.0253132 29.9251049,23.998521 L30.0296534,23.998521 L42.226978,22.6235234 C42.7081189,22.569939 43.0513865,22.1643147 42.993667,21.7176427 Z" id="Path"></path>
                        </g>
                    </g>
                </g>
            </g>
        </g>
    </g>
</svg>