<?xml version="1.0" encoding="UTF-8"?>
<svg width="30px" height="25px" viewBox="0 0 30 25" version="1.1" xmlns="http://www.w3.org/2000/svg" xmlns:xlink="http://www.w3.org/1999/xlink">
    <!-- Generator: Sketch 52.4 (67378) - http://www.bohemiancoding.com/sketch -->
    <title>icon-Tele</title>
    <desc>Created with Sketch.</desc>
    <g id="Page-1" stroke="none" stroke-width="1" fill="none" fill-rule="evenodd">
        <g id="AthenaKYC-Proto1" transform="translate(-769.000000, -3797.000000)" fill="#D0BBA4" fill-rule="nonzero">
            <g id="icon-Tele" transform="translate(769.000000, 3797.000000)">
                <path d="M27.3563438,0 C26.9351983,0 26.4897984,0.0719226488 26.0323501,0.213891703 C26.0156554,0.219051372 25.9991971,0.224836454 25.9828962,0.231090598 L0.972621351,9.84667968 C0.919072566,9.86724017 0.867964976,9.89358575 0.820164811,9.92524735 C0.745196513,9.97488961 0.0852077429,10.4348037 0.00756200522,11.2881034 C-0.0531528667,11.9539351 0.251996457,12.6137472 0.913717688,13.248621 C2.31338842,14.5945908 5.52466178,15.1734118 6.79337423,15.355251 L9.38489916,22.3385493 C9.39497893,22.3656766 9.40647617,22.3921786 9.41946963,22.4179769 C9.63043609,22.8365355 10.2371911,23.5449735 11.1737436,23.5449735 C11.7966419,23.5449735 12.4255251,23.2341426 13.0430686,22.6211584 L15.3302317,20.3505916 L21.4818846,24.6614945 C21.4875545,24.6654815 21.4933818,24.6693903 21.4992092,24.673221 C21.5816586,24.7277884 22.0233573,25 22.6250724,25 C23.1009478,25 23.9915114,24.81691 24.6090549,23.5906288 C25.4148853,21.9906626 29.5147535,4.52987604 29.9795255,2.5442637 C29.9931489,2.48625652 30,2.42684216 30,2.36727144 C30.0000787,0.995503271 28.8882327,0 27.3563438,0 Z M23.2004068,22.8912592 C23.0751972,23.1399396 22.8737592,23.4363078 22.6250724,23.4363078 C22.5161636,23.4363078 22.4098535,23.3909653 22.367487,23.3680595 L15.6964897,18.6933218 C15.383308,18.4738796 14.9565714,18.5101536 14.6855201,18.7792381 L11.9293327,21.5154258 C11.493855,21.9477435 11.2409158,21.9813595 11.1736648,21.9813595 C11.0174284,21.9813595 10.8841864,21.802491 10.8388274,21.7338518 L8.10650068,14.3711615 C8.00357677,14.0940248 7.75197623,13.8980356 7.45643418,13.8646541 C6.30954522,13.7349588 3.09520067,13.1696624 2.00863284,12.1248296 C1.59213354,11.725268 1.57173775,11.4959755 1.57543892,11.4351539 C1.57992757,11.3619023 1.62757023,11.2971719 1.66505438,11.2570672 L26.5259439,1.69885987 C26.8222734,1.60903474 27.1015145,1.56353584 27.3561863,1.56353584 C27.5979433,1.56353584 28.367707,1.61739965 28.4219646,2.29034548 C26.6120944,10.0185123 23.7452657,21.8094488 23.2004068,22.8912592 Z" id="Shape"></path>
                <path d="M24.1630101,3.80687753 L8.82231729,12.7217876 C8.49671108,12.911008 8.35457956,13.3106112 8.48643282,13.6659518 L10.7875367,19.8673587 C10.8931574,20.1520808 11.1537191,20.3480453 11.4539364,20.3685875 C11.4714248,20.3698277 11.4886831,20.3703704 11.5059414,20.3703704 C11.7865994,20.3703704 12.0467775,20.2148701 12.181162,19.9627054 L14.808946,15.030804 L25.0774688,5.03723667 C25.3565927,4.76569256 25.3914161,4.3264004 25.1587745,4.01330687 C24.9259795,3.70029085 24.4987412,3.61184328 24.1630101,3.80687753 Z M13.6583173,13.9981922 C13.6010965,14.0539273 13.5526966,14.1183444 13.5150352,14.1890405 L11.630968,17.7250827 L10.1514349,13.7378106 L19.5200727,8.29344042 L13.6583173,13.9981922 Z" id="Shape"></path>
            </g>
        </g>
    </g>
</svg>