<?xml version="1.0" encoding="UTF-8"?>
<svg width="46px" height="46px" viewBox="0 0 46 46" version="1.1" xmlns="http://www.w3.org/2000/svg" xmlns:xlink="http://www.w3.org/1999/xlink">
    <!-- Generator: Sketch 52.4 (67378) - http://www.bohemiancoding.com/sketch -->
    <title>icon-target</title>
    <desc>Created with Sketch.</desc>
    <g id="Page-1" stroke="none" stroke-width="1" fill="none" fill-rule="evenodd">
        <g id="AthenaKYC-Proto1" transform="translate(-529.000000, -1122.000000)" fill="#DB8655" fill-rule="nonzero">
            <g id="Benefits" transform="translate(171.000000, 999.000000)">
                <g id="Group-24" transform="translate(0.000000, 95.000000)">
                    <g id="02" transform="translate(256.000000, 0.000000)">
                        <g id="icon-target" transform="translate(102.000000, 28.000000)">
                            <path d="M37.9975518,14.3000145 L45.6590458,6.63852048 C46.0069831,6.29390843 46.0097542,5.73248675 45.6651422,5.38443855 C45.5058602,5.22360482 45.2911566,5.12972048 45.0649253,5.12218313 L45.0915277,5.17538795 L40.9238169,5.03350843 L40.7819373,0.86579759 C40.7654217,0.376313253 40.3553012,-0.0070939759 39.8658169,0.00942168675 C39.6395855,0.0170698795 39.4247711,0.110843373 39.2656,0.271677108 L31.6129735,7.88883373 C31.4402795,8.06263614 31.3471711,8.30017349 31.3558169,8.54502651 L31.3558169,9.43177349 C22.2572386,3.16391325 9.80043855,5.45870361 3.53257831,14.5571711 C-2.73528193,23.6556386 -0.44060241,36.1125494 8.6579759,42.3804096 C17.7564434,48.6482699 30.2133542,46.3534795 36.4812145,37.255012 C41.1888434,30.4214072 41.1888434,21.3908867 36.4812145,14.5571711 L37.3679614,14.5571711 C37.6036145,14.5585012 37.8301783,14.465947 37.9975518,14.3000145 Z M38.2635759,25.9164 C38.2768771,35.9951663 30.1171422,44.1764048 20.0383759,44.189706 C9.95960964,44.2030072 1.77837108,36.0432723 1.76506988,25.964506 C1.75176867,15.8857398 9.91150361,7.7045012 19.9902699,7.6912 C24.163412,7.68565783 28.2122988,9.11066024 31.4622265,11.7284482 L31.5065639,13.2093157 L27.9595759,16.7563036 C22.9138747,12.3339855 15.2385253,12.8394313 10.8162072,17.8851325 C6.39388916,22.9308337 6.89933494,30.6061831 11.9450361,35.0285012 C16.9907373,39.4508193 24.6660867,38.9453735 29.0884048,33.8996723 C33.0616964,29.3661783 33.1096916,22.6048434 29.2010217,18.0154843 L32.7480096,14.4684964 L34.2111422,14.5217012 C36.8190651,17.748241 38.2485012,21.7677542 38.2635759,25.9164 Z M19.4468048,26.5105205 C19.7926361,26.8543566 20.3512867,26.8543566 20.6971181,26.5105205 L22.470612,24.7370265 C22.6434169,25.0937205 22.7343084,25.4845542 22.7366361,25.8809301 C22.7366361,27.350159 21.5456241,28.5411711 20.0763952,28.5411711 C18.6071663,28.5411711 17.4161542,27.350159 17.4161542,25.8809301 C17.4161542,24.4117012 18.6071663,23.2206892 20.0763952,23.2206892 C20.4727711,23.2230169 20.8636048,23.3139084 21.2202988,23.4867133 L19.4468048,25.2602072 C19.1029687,25.6060386 19.1029687,26.1646892 19.4468048,26.5105205 Z M22.5149494,22.1831952 C20.4729928,20.8317928 17.7220819,21.3915518 16.3706795,23.4335084 C15.0192771,25.4754651 15.5790361,28.2263759 17.6209928,29.5777783 C19.6629494,30.9291807 22.4138602,30.3694217 23.7652627,28.3274651 C24.7471133,26.8438265 24.7471133,24.9170361 23.7652627,23.4335084 L27.9684434,19.2303277 C31.6532096,23.6055373 31.0933398,30.1394217 26.7181301,33.824188 C22.3429205,37.5089542 15.8090361,36.9490843 12.1242699,32.5738747 C8.43950361,28.1986651 8.99937349,21.6647807 13.3745831,17.9800145 C17.2299373,14.7331904 22.8627759,14.7331904 26.7181301,17.9800145 L22.5149494,22.1831952 Z M33.2977928,12.6595325 L33.1736482,8.88199036 L39.114853,2.94078554 L39.2123952,5.89365301 C39.2123952,6.38335904 39.6094361,6.7804 40.0991422,6.7804 L43.0520096,6.87794217 L37.0753349,12.7836771 L33.2977928,12.6595325 Z" id="Shape"></path>
                        </g>
                    </g>
                </g>
            </g>
        </g>
    </g>
</svg>