<?xml version="1.0" encoding="UTF-8"?>
<svg width="26px" height="32px" viewBox="0 0 26 32" version="1.1" xmlns="http://www.w3.org/2000/svg" xmlns:xlink="http://www.w3.org/1999/xlink">
    <!-- Generator: Sketch 52.4 (67378) - http://www.bohemiancoding.com/sketch -->
    <title>icon-Location</title>
    <desc>Created with Sketch.</desc>
    <g id="Page-1" stroke="none" stroke-width="1" fill="none" fill-rule="evenodd">
        <g id="AthenaKYC-Proto1" transform="translate(-771.000000, -3680.000000)" fill="#D0BBA4" fill-rule="nonzero">
            <g id="icon-Location" transform="translate(771.000000, 3680.000000)">
                <path d="M12.9932044,0 C5.83063251,0 0,5.75597484 0,12.8268344 C0,13.6318658 0.0747516989,14.4436059 0.231050706,15.2352201 C0.237846315,15.2821803 0.265028751,15.4230608 0.319393623,15.6645702 C0.516466283,16.529979 0.80867747,17.3819706 1.18923157,18.1937107 C2.58912703,21.4473795 5.6675379,26.445283 12.4223732,31.7987421 C12.5922635,31.932914 12.7961317,32 13,32 C13.2038683,32 13.4077365,31.932914 13.5776268,31.7987421 C20.3256665,26.445283 23.410873,21.4473795 24.8107684,18.1937107 C25.1913225,17.3819706 25.4835337,16.5366876 25.6806064,15.6645702 C25.7349712,15.4230608 25.7621537,15.2821803 25.7689493,15.2352201 C25.9184527,14.4436059 26,13.6318658 26,12.8268344 C25.9864088,5.75597484 20.1557763,0 12.9932044,0 Z M23.9477261,14.9199161 C23.9477261,14.9333333 23.9409305,14.9467505 23.9409305,14.9601677 C23.9341349,14.9937107 23.913748,15.0943396 23.87977,15.2486373 C23.87977,15.2553459 23.87977,15.2553459 23.87977,15.2620545 C23.7098798,16.0134172 23.4584422,16.7446541 23.1254574,17.4490566 C23.1186618,17.4557652 23.1186618,17.4691824 23.1118662,17.475891 C21.8410873,20.4477987 19.0548876,24.9828092 12.9932044,29.927044 C6.93152117,24.9828092 4.14532148,20.4477987 2.8745426,17.475891 C2.86774699,17.4691824 2.86774699,17.4557652 2.86095139,17.4490566 C2.53476215,16.7513627 2.28332462,16.0134172 2.10663879,15.2620545 C2.10663879,15.2553459 2.10663879,15.2553459 2.10663879,15.2486373 C2.06586513,15.0943396 2.05227392,14.9937107 2.04547831,14.9601677 C2.04547831,14.9467505 2.0386827,14.9333333 2.0386827,14.9132075 C1.90277052,14.2222222 1.83481443,13.5245283 1.83481443,12.8201258 C1.83481443,6.74884696 6.84317825,1.80461216 12.9932044,1.80461216 C19.1432305,1.80461216 24.1515944,6.74884696 24.1515944,12.8201258 C24.1515944,13.5312369 24.0836383,14.2356394 23.9477261,14.9199161 Z" id="Shape"></path>
                <path d="M13,4.70588235 C8.39462226,4.70588235 4.64285714,8.50857641 4.64285714,13.1764706 C4.64285714,17.8443648 8.39462226,21.6470588 13,21.6470588 C17.6053777,21.6470588 21.3571429,17.8443648 21.3571429,13.1764706 C21.3571429,8.50857641 17.6053777,4.70588235 13,4.70588235 Z M13,19.7631553 C9.41345022,19.7631553 6.50152977,16.8047291 6.50152977,13.1764706 C6.50152977,9.54821204 9.4203342,6.58978583 13,6.58978583 C16.5796658,6.58978583 19.4984702,9.54821204 19.4984702,13.1764706 C19.4984702,16.8047291 16.5865498,19.7631553 13,19.7631553 Z" id="Shape"></path>
            </g>
        </g>
    </g>
</svg>