<?xml version="1.0" encoding="UTF-8"?>
<svg width="46px" height="39px" viewBox="0 0 46 39" version="1.1" xmlns="http://www.w3.org/2000/svg" xmlns:xlink="http://www.w3.org/1999/xlink">
    <!-- Generator: Sketch 52.4 (67378) - http://www.bohemiancoding.com/sketch -->
    <title>Icon-Settings</title>
    <desc>Created with Sketch.</desc>
    <g id="Page-1" stroke="none" stroke-width="1" fill="none" fill-rule="evenodd">
        <g id="AthenaKYC-Proto1" transform="translate(-1043.000000, -1125.000000)" fill="#DB8655" fill-rule="nonzero">
            <g id="Benefits" transform="translate(171.000000, 999.000000)">
                <g id="Group-24" transform="translate(0.000000, 95.000000)">
                    <g id="04" transform="translate(768.000000, 0.000000)">
                        <g id="Icon-Settings" transform="translate(104.000000, 31.000000)">
                            <path d="M23.5603636,23.6914516 L21.2101818,23.6914516 C21.0620409,23.2422177 20.8803409,22.8048306 20.6665455,22.3830645 L22.3392727,20.7056452 C22.6635727,20.3785484 22.6635727,19.8501613 22.3392727,19.5230645 L19.3283636,16.5037097 C19.0021818,16.1785 18.4752727,16.1785 18.1490909,16.5037097 L16.4763636,18.181129 C16.0633045,17.9761694 15.6355045,17.8023468 15.1967273,17.661129 L15.1967273,15.3043548 C15.1967273,14.8411774 14.8222455,14.4656452 14.3603636,14.4656452 L10.0781818,14.4656452 C9.6163,14.4656452 9.24181818,14.8411774 9.24181818,15.3043548 L9.24181818,17.7533871 C8.82018636,17.8972258 8.40932273,18.0709435 8.01236364,18.2733871 L6.27272727,16.5373629 C5.94654545,16.2121532 5.41963636,16.2121532 5.09345455,16.5373629 L2.09090909,19.5482258 C1.76660909,19.8753226 1.76660909,20.4037097 2.09090909,20.7308065 L3.84727273,22.4920968 C3.65260909,22.8797903 3.48491818,23.2804839 3.34545455,23.6914516 L0.836363636,23.6914516 C0.374481818,23.6914516 0,24.0669839 0,24.5301613 L0,28.7991935 C0,29.262371 0.374481818,29.6379032 0.836363636,29.6379032 L3.34545455,29.6379032 C3.48136364,30.0543226 3.64623182,30.4607823 3.83890909,30.8540323 L2.09090909,32.6320968 C1.76660909,32.9591935 1.76660909,33.4875806 2.09090909,33.8146774 L5.10181818,36.8340323 C5.428,37.1592419 5.95490909,37.1592419 6.28109091,36.8340323 L8.01236364,35.0979032 C8.40942727,35.3001371 8.82029091,35.4739597 9.24181818,35.6179032 L9.24181818,38.0669355 C9.24181818,38.5301129 9.6163,38.9056452 10.0781818,38.9056452 L14.3352727,38.9056452 C14.7971545,38.9056452 15.1716364,38.5301129 15.1716364,38.0669355 L15.1716364,35.6682258 C15.6104136,35.5267984 16.0381091,35.3530806 16.4512727,35.1482258 L18.124,36.8256452 C18.4501818,37.1508548 18.9770909,37.1508548 19.3032727,36.8256452 L22.3141818,33.8062903 C22.6384818,33.4791935 22.6384818,32.9508065 22.3141818,32.6237097 L20.6414545,30.9462903 C20.8555636,30.524629 21.0372636,30.0872419 21.1850909,29.6379032 L23.5352727,29.6379032 C23.9971545,29.6379032 24.3716364,29.262371 24.3716364,28.7991935 L24.3716364,24.5301613 C24.3718455,24.076629 24.0124182,23.7050806 23.5603636,23.6914516 Z M22.724,27.9604839 L20.5829091,27.9604839 C20.1917,27.9481129 19.8441909,28.209371 19.7465455,28.5895161 C19.5686091,29.3141613 19.2868591,30.0091371 18.9101818,30.6527419 C18.7133227,30.9823548 18.7650727,31.4040161 19.0356364,31.6759677 L20.5494545,33.1940323 L18.7178182,35.0224194 L17.1872727,33.4875806 C16.9194273,33.217621 16.5038591,33.1625806 16.1752727,33.3533871 C15.5359773,33.7301774 14.8458727,34.0127177 14.1261818,34.1920968 C13.7438591,34.2867661 13.4790455,34.6359839 13.4905455,35.0308065 L13.4905455,37.2282258 L10.9145455,37.2282258 L10.9145455,34.9972581 C10.9268818,34.6049516 10.6663545,34.2564677 10.2872727,34.1585484 C9.58472727,33.9753952 8.91166364,33.6929597 8.28836364,33.3198387 C7.95967273,33.1224274 7.53919091,33.1743226 7.268,33.4456452 L5.67890909,35.0391935 L3.85563636,33.2275806 L5.43636364,31.6172581 C5.70556818,31.3486613 5.76045455,30.9319274 5.57018182,30.6024194 C5.20009091,29.9822984 4.91855,29.3132177 4.73381818,28.6146774 C4.63617273,28.2345323 4.28866364,27.9732742 3.89745455,27.9856452 L1.68945455,27.9856452 L1.68945455,25.368871 L3.97272727,25.368871 C4.36393636,25.3812419 4.71144545,25.1199839 4.80909091,24.7398387 C4.99434545,24.0415081 5.27578182,23.3724274 5.64545455,22.7520968 C5.80865,22.4102177 5.72292273,22.0011371 5.43636364,21.7540323 L3.85563636,20.1437097 L5.68727273,18.3153226 L7.27636364,19.908871 C7.54755455,20.1801935 7.96803636,20.2320887 8.29672727,20.0346774 C8.92044545,19.6623952 9.59340455,19.3799597 10.2956364,19.1959677 C10.6713727,19.0947984 10.9278227,18.7471532 10.9145455,18.3572581 L10.9145455,16.1430645 L13.4989091,16.1430645 L13.4989091,18.3404839 C13.4874091,18.7353065 13.7522227,19.0845242 14.1345455,19.1791935 C14.8542364,19.3584677 15.5443409,19.6410081 16.1836364,20.0179032 C16.5122227,20.2087097 16.9277909,20.1536694 17.1956364,19.8837097 L18.7261818,18.3404839 L20.5578182,20.168871 L19.0356364,21.6953226 C18.7650727,21.9672742 18.7133227,22.3889355 18.9101818,22.7185484 C19.2872773,23.3619435 19.5690273,24.0570242 19.7465455,24.7817742 C19.8441909,25.1619194 20.1917,25.4231774 20.5829091,25.4108065 L22.724,25.4108065 L22.724,27.9604839 Z" id="Shape"></path>
                            <path d="M12.2109091,22.0141371 C9.62424545,22.0141371 7.52727273,24.1169919 7.52727273,26.7109113 C7.52727273,29.3048306 9.62424545,31.4076855 12.2109091,31.4076855 C14.7975727,31.4076855 16.8945455,29.3048306 16.8945455,26.7109113 C16.8899455,24.1187742 14.7956909,22.01875 12.2109091,22.0141371 Z M12.2109091,29.705 L12.2109091,29.7301613 C10.5480091,29.7301613 9.2,28.378371 9.2,26.7108065 C9.2,25.0432419 10.5480091,23.6914516 12.2109091,23.6914516 C13.8738091,23.6914516 15.2218182,25.0432419 15.2218182,26.7108065 C15.2080182,28.3685161 13.8640864,29.7051048 12.2109091,29.705 Z" id="Shape"></path>
                            <path d="M45.9668591,11.98925 C45.9642455,11.9759355 45.9614227,11.9627258 45.9581818,11.949621 L45.0549091,7.81478226 C44.9549636,7.36355645 44.5098091,7.0785 44.0596364,7.1773629 L41.768,7.68058871 C41.5190773,7.27391935 41.2395227,6.88695968 40.9316364,6.52316935 L42.2363636,4.52704032 C42.4850773,4.13777419 42.3729,3.62018548 41.9854545,3.36962097 L38.3890909,1.04639516 C38.0009136,0.796983871 37.4847727,0.909475806 37.2349091,1.29800806 L35.9469091,3.31091129 C35.4989318,3.19862903 35.0432182,3.12010484 34.5836364,3.07607258 L34.0734545,0.727685484 C33.9699545,0.27625 33.5210364,-0.00555645161 33.0709682,0.0983387097 C33.0593636,0.100959677 33.0478636,0.103895161 33.0363636,0.107040323 L28.8545455,1.02123387 C28.4046864,1.12145968 28.1203227,1.5678629 28.2189091,2.01929839 L28.8043636,4.40123387 C28.4214136,4.63219355 28.0552955,4.88999194 27.7087273,5.17284677 L25.6429091,3.84758065 C25.2547318,3.59816935 24.7385909,3.71066129 24.4887273,4.09919355 L22.1636364,7.6973629 C21.9149227,8.08662903 22.0271,8.60421774 22.4145455,8.85478226 L24.5054545,10.1967177 C24.4002818,10.6214194 24.3248,11.0530403 24.2796364,11.4883306 L21.8458182,12.0251048 C21.3958545,12.1253306 21.1115955,12.5717339 21.2101818,13.0231694 L22.1218182,17.2167177 C22.2217636,17.6679435 22.6669182,17.953 23.1170909,17.8541371 L25.5509091,17.32575 C25.7908409,17.6961452 26.0563864,18.0492419 26.3454545,18.3825242 L25.0072727,20.4792984 C24.7585591,20.8685645 24.8707364,21.3861532 25.2581818,21.6367177 L28.8378182,23.9431694 C29.2259955,24.1925806 29.7421364,24.0800887 29.992,23.6915565 L31.3134545,21.6199435 C31.7448091,21.7324355 32.1835864,21.8136855 32.6265455,21.8631694 L33.1450909,24.2534919 C33.22925,24.6469516 33.5802091,24.9249839 33.9814545,24.9160726 L34.1570909,24.9160726 L38.3389091,24.0102661 C38.7631545,23.8734516 39.0059091,23.4271532 38.8909091,22.9954274 L38.3807273,20.6470403 C38.7782091,20.4150323 39.1583364,20.1542984 39.5181818,19.8670403 L41.5505455,21.1754274 C41.9387227,21.4248387 42.4548636,21.3123468 42.7047273,20.9238145 L45.0047273,17.32575 C45.2617,16.9408871 45.1589318,16.4199435 44.7751455,16.16225 C44.7654227,16.1556452 44.7554909,16.1493548 44.7454545,16.1431694 L42.7632727,14.8683306 C42.8819318,14.4112339 42.9657773,13.9458548 43.0141818,13.4760726 L45.3058182,12.9728468 C45.7592318,12.8842581 46.0552,12.4439355 45.9668591,11.98925 Z M42.0607273,12.0083306 C41.6894864,12.0877984 41.4181909,12.4080806 41.4,12.7883306 C41.3742818,13.5392903 41.239,14.2824919 40.9985455,14.9941371 C40.8768545,15.358871 41.0182,15.7599839 41.3414545,15.9670403 L43.148,17.1244597 L41.7512727,19.3051048 L39.928,18.1309113 C39.6067318,17.9246935 39.1869818,17.9626452 38.9076364,18.2231694 C38.36285,18.7253468 37.7488545,19.1462742 37.0843636,19.4728468 C36.7380045,19.6418468 36.5514955,20.0261855 36.6327273,20.4038145 L37.1010909,22.5509113 L34.592,23.1044597 L34.1152727,20.9238145 C34.0360273,20.5515323 33.7166409,20.2794758 33.3374545,20.2612339 C32.6110727,20.2290484 31.8930545,20.0934919 31.2047273,19.8586532 C31.1183727,19.8301371 31.0279409,19.8159839 30.9370909,19.8167177 C30.6527273,19.8172419 30.3881227,19.9625484 30.2345455,20.2025242 L29.0218182,22.0980081 L26.8472727,20.6973629 L28.0181818,18.7683306 C28.2238227,18.4461613 28.1859773,18.0252339 27.9261818,17.7451048 C27.4391045,17.2150403 27.0280318,16.6194516 26.7050909,15.9754274 C26.5338455,15.6313468 26.1512091,15.4481935 25.7767273,15.5309113 L23.552,16.0173629 L23,13.5012339 L25.2247273,13.0147823 C25.5988955,12.9344758 25.8709227,12.6097903 25.8854545,12.2263952 C25.9383545,11.4981855 26.0931864,10.7809839 26.3454545,10.0960726 C26.4628591,9.73375 26.3220364,9.33766935 26.0025455,9.13155645 L24.0956364,7.90704032 L25.4923636,5.72639516 L27.3323636,6.9173629 C27.6555136,7.12798387 28.0803864,7.08982258 28.3610909,6.82510484 C28.8898818,6.32387097 29.4868364,5.90032258 30.1341818,5.56704032 C30.4705045,5.39353226 30.6488591,5.01527419 30.5690909,4.64445968 L30.0923636,2.46381452 L32.6014545,1.91026613 L33.0698182,4.0573629 C33.1539773,4.45082258 33.5049364,4.72885484 33.9061818,4.71994355 C34.6454227,4.73965323 35.3778682,4.86671774 36.0807273,5.0973629 C36.4420364,5.21509677 36.8370091,5.07387903 37.0425455,4.75349194 L38.2134545,2.92510484 L40.388,4.32575 L39.2254545,6.1373629 C39.0176182,6.46330645 39.0591227,6.88947581 39.3258182,7.16897581 C39.8250227,7.71780645 40.24195,8.33656452 40.5636364,9.00575 C40.7348818,9.34983065 41.1175182,9.53308871 41.492,9.45026613 L43.5829091,8.9973629 L44.1349091,11.5134919 L42.0607273,12.0083306 Z" id="Shape"></path>
                            <path d="M38.18,11.5051048 C37.7177,9.34333065 35.80985,7.80083871 33.6050909,7.80639516 C31.0184273,7.80545161 28.9207227,9.90746774 28.9196773,12.5013871 C28.9186318,15.0953065 31.0148727,17.1988952 33.6015364,17.1999435 C36.1882,17.2008871 38.2859045,15.098871 38.28695,12.5049516 C38.2870545,12.1687339 38.2511955,11.8335645 38.18,11.5051048 Z M34.2323636,15.4554274 L34.2407273,15.4554274 C32.61975,15.7848306 31.0309727,14.7635968 30.6527273,13.1489758 C30.3004091,11.5190484 31.3287182,9.91040323 32.9527273,9.55091129 C33.1644318,9.50583065 33.3803182,9.48339516 33.5967273,9.48381452 C35.2596273,9.48140323 36.6096227,10.8312016 36.6120273,12.4987661 C36.6141182,13.9239435 35.6220864,15.1565323 34.2323636,15.4554274 Z" id="Shape"></path>
                        </g>
                    </g>
                </g>
            </g>
        </g>
    </g>
</svg>