<?xml version="1.0" encoding="UTF-8"?>
<svg width="1034px" height="9px" viewBox="0 0 1034 9" version="1.1" xmlns="http://www.w3.org/2000/svg" xmlns:xlink="http://www.w3.org/1999/xlink">
    <!-- Generator: Sketch 52.4 (67378) - http://www.bohemiancoding.com/sketch -->
    <title>Line-Path-Roadmap</title>
    <desc>Created with Sketch.</desc>
    <g id="Page-1" stroke="none" stroke-width="1" fill="none" fill-rule="evenodd">
        <g id="AthenaKYC-Proto1" transform="translate(-166.000000, -2463.000000)" fill="#64645B" fill-rule="nonzero">
            <g id="Roadmap-Section" transform="translate(171.000000, 2166.000000)">
                <path id="Line-Path-Roadmap" d="M4.5,301 L6,301 L6,302 L4.5,302 L4.5,306 L-4.5,306 L-4.5,297 L4.5,297 L4.5,301 Z M1020,306 L1019.5,306 L1019.5,305.5 L1019.5,297.5 L1019.5,297 L1020,297 L1028,297 L1028.5,297 L1028.5,297.5 L1028.5,305.5 L1028.5,306 L1028,306 L1020,306 Z M1020.5,305 L1027.5,305 L1027.5,298 L1020.5,298 L1020.5,305 Z M8,302 L8,301 L10,301 L10,302 L8,302 Z M12,302 L12,301 L14,301 L14,302 L12,302 Z M16,302 L16,301 L18,301 L18,302 L16,302 Z M20,302 L20,301 L22,301 L22,302 L20,302 Z M24,302 L24,301 L26,301 L26,302 L24,302 Z M28,302 L28,301 L30,301 L30,302 L28,302 Z M32,302 L32,301 L34,301 L34,302 L32,302 Z M36,302 L36,301 L38,301 L38,302 L36,302 Z M40,302 L40,301 L42,301 L42,302 L40,302 Z M44,302 L44,301 L46,301 L46,302 L44,302 Z M48,302 L48,301 L50,301 L50,302 L48,302 Z M52,302 L52,301 L54,301 L54,302 L52,302 Z M56,302 L56,301 L58,301 L58,302 L56,302 Z M60,302 L60,301 L62,301 L62,302 L60,302 Z M64,302 L64,301 L66,301 L66,302 L64,302 Z M68,302 L68,301 L70,301 L70,302 L68,302 Z M72,302 L72,301 L74,301 L74,302 L72,302 Z M76,302 L76,301 L78,301 L78,302 L76,302 Z M80,302 L80,301 L82,301 L82,302 L80,302 Z M84,302 L84,301 L86,301 L86,302 L84,302 Z M88,302 L88,301 L90,301 L90,302 L88,302 Z M92,302 L92,301 L94,301 L94,302 L92,302 Z M96,302 L96,301 L98,301 L98,302 L96,302 Z M100,302 L100,301 L102,301 L102,302 L100,302 Z M104,302 L104,301 L106,301 L106,302 L104,302 Z M108,302 L108,301 L110,301 L110,302 L108,302 Z M112,302 L112,301 L114,301 L114,302 L112,302 Z M116,302 L116,301 L118,301 L118,302 L116,302 Z M120,302 L120,301 L122,301 L122,302 L120,302 Z M124,302 L124,301 L126,301 L126,302 L124,302 Z M128,302 L128,301 L130,301 L130,302 L128,302 Z M132,302 L132,301 L134,301 L134,302 L132,302 Z M136,302 L136,301 L138,301 L138,302 L136,302 Z M140,302 L140,301 L142,301 L142,302 L140,302 Z M144,302 L144,301 L146,301 L146,302 L144,302 Z M148,302 L148,301 L150,301 L150,302 L148,302 Z M152,302 L152,301 L154,301 L154,302 L152,302 Z M156,302 L156,301 L158,301 L158,302 L156,302 Z M160,302 L160,301 L162,301 L162,302 L160,302 Z M164,302 L164,301 L166,301 L166,302 L164,302 Z M168,302 L168,301 L170,301 L170,302 L168,302 Z M172,302 L172,301 L174,301 L174,302 L172,302 Z M176,302 L176,301 L178,301 L178,302 L176,302 Z M180,302 L180,301 L182,301 L182,302 L180,302 Z M184,302 L184,301 L186,301 L186,302 L184,302 Z M188,302 L188,301 L190,301 L190,302 L188,302 Z M192,302 L192,301 L194,301 L194,302 L192,302 Z M196,302 L196,301 L198,301 L198,302 L196,302 Z M200,302 L200,301 L202,301 L202,302 L200,302 Z M204,302 L204,301 L206,301 L206,302 L204,302 Z M208,302 L208,301 L210,301 L210,302 L208,302 Z M212,302 L212,301 L214,301 L214,302 L212,302 Z M216,302 L216,301 L218,301 L218,302 L216,302 Z M220,302 L220,301 L222,301 L222,302 L220,302 Z M224,302 L224,301 L226,301 L226,302 L224,302 Z M228,302 L228,301 L230,301 L230,302 L228,302 Z M232,302 L232,301 L234,301 L234,302 L232,302 Z M236,302 L236,301 L238,301 L238,302 L236,302 Z M240,302 L240,301 L242,301 L242,302 L240,302 Z M244,302 L244,301 L246,301 L246,302 L244,302 Z M248,302 L248,301 L250,301 L250,302 L248,302 Z M252,302 L252,301 L254,301 L254,302 L252,302 Z M256,302 L256,301 L258,301 L258,302 L256,302 Z M260,302 L260,301 L262,301 L262,302 L260,302 Z M264,302 L264,301 L266,301 L266,302 L264,302 Z M268,302 L268,301 L270,301 L270,302 L268,302 Z M272,302 L272,301 L274,301 L274,302 L272,302 Z M276,302 L276,301 L278,301 L278,302 L276,302 Z M280,302 L280,301 L282,301 L282,302 L280,302 Z M284,302 L284,301 L286,301 L286,302 L284,302 Z M288,302 L288,301 L290,301 L290,302 L288,302 Z M292,302 L292,301 L294,301 L294,302 L292,302 Z M296,302 L296,301 L298,301 L298,302 L296,302 Z M300,302 L300,301 L302,301 L302,302 L300,302 Z M304,302 L304,301 L306,301 L306,302 L304,302 Z M308,302 L308,301 L310,301 L310,302 L308,302 Z M312,302 L312,301 L314,301 L314,302 L312,302 Z M316,302 L316,301 L318,301 L318,302 L316,302 Z M320,302 L320,301 L322,301 L322,302 L320,302 Z M324,302 L324,301 L326,301 L326,302 L324,302 Z M328,302 L328,301 L330,301 L330,302 L328,302 Z M332,302 L332,301 L334,301 L334,302 L332,302 Z M336,302 L336,301 L338,301 L338,302 L336,302 Z M340,302 L340,301 L342,301 L342,302 L340,302 Z M344,302 L344,301 L346,301 L346,302 L344,302 Z M348,302 L348,301 L350,301 L350,302 L348,302 Z M352,302 L352,301 L354,301 L354,302 L352,302 Z M356,302 L356,301 L358,301 L358,302 L356,302 Z M360,302 L360,301 L362,301 L362,302 L360,302 Z M364,302 L364,301 L366,301 L366,302 L364,302 Z M368,302 L368,301 L370,301 L370,302 L368,302 Z M372,302 L372,301 L374,301 L374,302 L372,302 Z M376,302 L376,301 L378,301 L378,302 L376,302 Z M380,302 L380,301 L382,301 L382,302 L380,302 Z M384,302 L384,301 L386,301 L386,302 L384,302 Z M388,302 L388,301 L390,301 L390,302 L388,302 Z M392,302 L392,301 L394,301 L394,302 L392,302 Z M396,302 L396,301 L398,301 L398,302 L396,302 Z M400,302 L400,301 L402,301 L402,302 L400,302 Z M404,302 L404,301 L406,301 L406,302 L404,302 Z M408,302 L408,301 L410,301 L410,302 L408,302 Z M412,302 L412,301 L414,301 L414,302 L412,302 Z M416,302 L416,301 L418,301 L418,302 L416,302 Z M420,302 L420,301 L422,301 L422,302 L420,302 Z M424,302 L424,301 L426,301 L426,302 L424,302 Z M428,302 L428,301 L430,301 L430,302 L428,302 Z M432,302 L432,301 L434,301 L434,302 L432,302 Z M436,302 L436,301 L438,301 L438,302 L436,302 Z M440,302 L440,301 L442,301 L442,302 L440,302 Z M444,302 L444,301 L446,301 L446,302 L444,302 Z M448,302 L448,301 L450,301 L450,302 L448,302 Z M452,302 L452,301 L454,301 L454,302 L452,302 Z M456,302 L456,301 L458,301 L458,302 L456,302 Z M460,302 L460,301 L462,301 L462,302 L460,302 Z M464,302 L464,301 L466,301 L466,302 L464,302 Z M468,302 L468,301 L470,301 L470,302 L468,302 Z M472,302 L472,301 L474,301 L474,302 L472,302 Z M476,302 L476,301 L478,301 L478,302 L476,302 Z M480,302 L480,301 L482,301 L482,302 L480,302 Z M484,302 L484,301 L486,301 L486,302 L484,302 Z M488,302 L488,301 L490,301 L490,302 L488,302 Z M492,302 L492,301 L494,301 L494,302 L492,302 Z M496,302 L496,301 L498,301 L498,302 L496,302 Z M500,302 L500,301 L502,301 L502,302 L500,302 Z M504,302 L504,301 L506,301 L506,302 L504,302 Z M508,302 L508,301 L510,301 L510,302 L508,302 Z M512,302 L512,301 L514,301 L514,302 L512,302 Z M516,302 L516,301 L518,301 L518,302 L516,302 Z M520,302 L520,301 L522,301 L522,302 L520,302 Z M524,302 L524,301 L526,301 L526,302 L524,302 Z M528,302 L528,301 L530,301 L530,302 L528,302 Z M532,302 L532,301 L534,301 L534,302 L532,302 Z M536,302 L536,301 L538,301 L538,302 L536,302 Z M540,302 L540,301 L542,301 L542,302 L540,302 Z M544,302 L544,301 L546,301 L546,302 L544,302 Z M548,302 L548,301 L550,301 L550,302 L548,302 Z M552,302 L552,301 L554,301 L554,302 L552,302 Z M556,302 L556,301 L558,301 L558,302 L556,302 Z M560,302 L560,301 L562,301 L562,302 L560,302 Z M564,302 L564,301 L566,301 L566,302 L564,302 Z M568,302 L568,301 L570,301 L570,302 L568,302 Z M572,302 L572,301 L574,301 L574,302 L572,302 Z M576,302 L576,301 L578,301 L578,302 L576,302 Z M580,302 L580,301 L582,301 L582,302 L580,302 Z M584,302 L584,301 L586,301 L586,302 L584,302 Z M588,302 L588,301 L590,301 L590,302 L588,302 Z M592,302 L592,301 L594,301 L594,302 L592,302 Z M596,302 L596,301 L598,301 L598,302 L596,302 Z M600,302 L600,301 L602,301 L602,302 L600,302 Z M604,302 L604,301 L606,301 L606,302 L604,302 Z M608,302 L608,301 L610,301 L610,302 L608,302 Z M612,302 L612,301 L614,301 L614,302 L612,302 Z M616,302 L616,301 L618,301 L618,302 L616,302 Z M620,302 L620,301 L622,301 L622,302 L620,302 Z M624,302 L624,301 L626,301 L626,302 L624,302 Z M628,302 L628,301 L630,301 L630,302 L628,302 Z M632,302 L632,301 L634,301 L634,302 L632,302 Z M636,302 L636,301 L638,301 L638,302 L636,302 Z M640,302 L640,301 L642,301 L642,302 L640,302 Z M644,302 L644,301 L646,301 L646,302 L644,302 Z M648,302 L648,301 L650,301 L650,302 L648,302 Z M652,302 L652,301 L654,301 L654,302 L652,302 Z M656,302 L656,301 L658,301 L658,302 L656,302 Z M660,302 L660,301 L662,301 L662,302 L660,302 Z M664,302 L664,301 L666,301 L666,302 L664,302 Z M668,302 L668,301 L670,301 L670,302 L668,302 Z M672,302 L672,301 L674,301 L674,302 L672,302 Z M676,302 L676,301 L678,301 L678,302 L676,302 Z M680,302 L680,301 L682,301 L682,302 L680,302 Z M684,302 L684,301 L686,301 L686,302 L684,302 Z M688,302 L688,301 L690,301 L690,302 L688,302 Z M692,302 L692,301 L694,301 L694,302 L692,302 Z M696,302 L696,301 L698,301 L698,302 L696,302 Z M700,302 L700,301 L702,301 L702,302 L700,302 Z M704,302 L704,301 L706,301 L706,302 L704,302 Z M708,302 L708,301 L710,301 L710,302 L708,302 Z M712,302 L712,301 L714,301 L714,302 L712,302 Z M716,302 L716,301 L718,301 L718,302 L716,302 Z M720,302 L720,301 L722,301 L722,302 L720,302 Z M724,302 L724,301 L726,301 L726,302 L724,302 Z M728,302 L728,301 L730,301 L730,302 L728,302 Z M732,302 L732,301 L734,301 L734,302 L732,302 Z M736,302 L736,301 L738,301 L738,302 L736,302 Z M740,302 L740,301 L742,301 L742,302 L740,302 Z M744,302 L744,301 L746,301 L746,302 L744,302 Z M748,302 L748,301 L750,301 L750,302 L748,302 Z M752,302 L752,301 L754,301 L754,302 L752,302 Z M756,302 L756,301 L758,301 L758,302 L756,302 Z M760,302 L760,301 L762,301 L762,302 L760,302 Z M764,302 L764,301 L766,301 L766,302 L764,302 Z M768,302 L768,301 L770,301 L770,302 L768,302 Z M772,302 L772,301 L774,301 L774,302 L772,302 Z M776,302 L776,301 L778,301 L778,302 L776,302 Z M780,302 L780,301 L782,301 L782,302 L780,302 Z M784,302 L784,301 L786,301 L786,302 L784,302 Z M788,302 L788,301 L790,301 L790,302 L788,302 Z M792,302 L792,301 L794,301 L794,302 L792,302 Z M796,302 L796,301 L798,301 L798,302 L796,302 Z M800,302 L800,301 L802,301 L802,302 L800,302 Z M804,302 L804,301 L806,301 L806,302 L804,302 Z M808,302 L808,301 L810,301 L810,302 L808,302 Z M812,302 L812,301 L814,301 L814,302 L812,302 Z M816,302 L816,301 L818,301 L818,302 L816,302 Z M820,302 L820,301 L822,301 L822,302 L820,302 Z M824,302 L824,301 L826,301 L826,302 L824,302 Z M828,302 L828,301 L830,301 L830,302 L828,302 Z M832,302 L832,301 L834,301 L834,302 L832,302 Z M836,302 L836,301 L838,301 L838,302 L836,302 Z M840,302 L840,301 L842,301 L842,302 L840,302 Z M844,302 L844,301 L846,301 L846,302 L844,302 Z M848,302 L848,301 L850,301 L850,302 L848,302 Z M852,302 L852,301 L854,301 L854,302 L852,302 Z M856,302 L856,301 L858,301 L858,302 L856,302 Z M860,302 L860,301 L862,301 L862,302 L860,302 Z M864,302 L864,301 L866,301 L866,302 L864,302 Z M868,302 L868,301 L870,301 L870,302 L868,302 Z M872,302 L872,301 L874,301 L874,302 L872,302 Z M876,302 L876,301 L878,301 L878,302 L876,302 Z M880,302 L880,301 L882,301 L882,302 L880,302 Z M884,302 L884,301 L886,301 L886,302 L884,302 Z M888,302 L888,301 L890,301 L890,302 L888,302 Z M892,302 L892,301 L894,301 L894,302 L892,302 Z M896,302 L896,301 L898,301 L898,302 L896,302 Z M900,302 L900,301 L902,301 L902,302 L900,302 Z M904,302 L904,301 L906,301 L906,302 L904,302 Z M908,302 L908,301 L910,301 L910,302 L908,302 Z M912,302 L912,301 L914,301 L914,302 L912,302 Z M916,302 L916,301 L918,301 L918,302 L916,302 Z M920,302 L920,301 L922,301 L922,302 L920,302 Z M924,302 L924,301 L926,301 L926,302 L924,302 Z M928,302 L928,301 L930,301 L930,302 L928,302 Z M932,302 L932,301 L934,301 L934,302 L932,302 Z M936,302 L936,301 L938,301 L938,302 L936,302 Z M940,302 L940,301 L942,301 L942,302 L940,302 Z M944,302 L944,301 L946,301 L946,302 L944,302 Z M948,302 L948,301 L950,301 L950,302 L948,302 Z M952,302 L952,301 L954,301 L954,302 L952,302 Z M956,302 L956,301 L958,301 L958,302 L956,302 Z M960,302 L960,301 L962,301 L962,302 L960,302 Z M964,302 L964,301 L966,301 L966,302 L964,302 Z M968,302 L968,301 L970,301 L970,302 L968,302 Z M972,302 L972,301 L974,301 L974,302 L972,302 Z M976,302 L976,301 L978,301 L978,302 L976,302 Z M980,302 L980,301 L982,301 L982,302 L980,302 Z M984,302 L984,301 L986,301 L986,302 L984,302 Z M988,302 L988,301 L990,301 L990,302 L988,302 Z M992,302 L992,301 L994,301 L994,302 L992,302 Z M996,302 L996,301 L998,301 L998,302 L996,302 Z M1000,302 L1000,301 L1002,301 L1002,302 L1000,302 Z M1004,302 L1004,301 L1006,301 L1006,302 L1004,302 Z M1008,302 L1008,301 L1010,301 L1010,302 L1008,302 Z M1012,302 L1012,301 L1014,301 L1014,302 L1012,302 Z M1016,302 L1016,301 L1018,301 L1018,302 L1016,302 Z"></path>
            </g>
        </g>
    </g>
</svg>